<?xml version="1.0" encoding="utf-8"?>
<!-- Generator: Adobe Illustrator 22.0.1, SVG Export Plug-In . SVG Version: 6.00 Build 0)  -->
<svg version="1.1" id="Layer_1" xmlns="http://www.w3.org/2000/svg" xmlns:xlink="http://www.w3.org/1999/xlink" x="0px" y="0px"
	 viewBox="0 0 960 311.9" style="enable-background:new 0 0 960 311.9;" xml:space="preserve">
<style type="text/css">
	.st0{fill:#546E7A;}
	.st1{fill:#64BCE8;}
	.st2{fill:#3F535C;}
	.st3{fill:#FFFFFF;}
	.st4{fill:#E4F2FB;}
	.st5{fill:none;stroke:#3FA8EF;stroke-miterlimit:10;}
	.st6{fill:#E4F2FB;stroke:#3FA8EF;stroke-miterlimit:10;}
	.st7{fill:#57A7DB;}
	.st8{fill:#71BE71;}
	.st9{fill:#F4AE7A;}
	.st10{fill:none;stroke:#A3D1EE;stroke-miterlimit:10;}
	.st11{fill:#95C8EC;}
	.st12{clip-path:url(#SVGID_2_);fill:#E4F2FB;}
	.st13{fill:#0F9BD7;}
	.st14{fill:#D9F1FC;}
	.st15{fill:#E0F4FF;}
	.st16{fill:#1A89C6;}
	.st17{fill:#3FA8EF;}
	.st18{fill:#00A1E0;}
	.st19{fill:#F49F86;}
	.st20{fill:#F6B591;}
	.st21{fill:#212955;}
	.st22{fill:#F7B58F;}
	.st23{fill:#FAB88E;}
	.st24{fill:#0A3C5F;}
	.st25{fill:none;stroke:#FFFFFF;stroke-miterlimit:10;}
	.st26{fill:#0A3C5D;}
	.st27{fill:#212B54;}
	.st28{fill:#F9B75F;}
	.st29{fill:none;stroke:#3FA8EF;stroke-width:3;stroke-linecap:round;stroke-linejoin:round;stroke-miterlimit:10;}
	.st30{fill:#F7B690;}
	.st31{fill:#F8B691;}
	.st32{fill:#F2B490;}
	.st33{fill:#212A53;}
	.st34{fill:#202B53;}
	.st35{fill:#222B53;}
	.st36{fill:#10385B;}
	.st37{fill:#F0A189;}
	.st38{fill:#F6B590;}
	.st39{fill:#222B54;}
	.st40{fill:#F6B690;}
	.st41{fill:#1E2750;}
	.st42{fill:#EDE19B;}
	.st43{fill:#61B6D8;}
	.st44{fill:#EA8E21;}
	.st45{fill:#FAD5C0;}
	.st46{fill:#F6B791;}
	.st47{fill:#F6B891;}
	.st48{fill:#B6E0F4;}
	.st49{fill:#FCF7EF;}
	.st50{fill:#FEFEFE;}
	.st51{fill:#4B5675;}
	.st52{fill:#FFD3BA;}
	.st53{fill:#FEFEFB;}
	.st54{fill:#0071BC;}
	.st55{fill:#EDBFB2;}
	.st56{opacity:0.6;fill:#95C8EC;enable-background:new    ;}
	.st57{fill:none;stroke:#3FA8EF;stroke-width:4;stroke-miterlimit:10;}
	.st58{fill:none;stroke:#043B98;stroke-width:2;stroke-linecap:round;stroke-linejoin:round;stroke-miterlimit:10;}
	.st59{fill:#E4F2FB;stroke:#3FA8EF;stroke-linecap:round;stroke-linejoin:round;stroke-miterlimit:10;}
	.st60{fill:#3FA8EF;stroke:#3FA8EF;stroke-linecap:round;stroke-linejoin:round;stroke-miterlimit:10;}
	.st61{fill:none;stroke:#3FA8EF;stroke-linecap:round;stroke-linejoin:round;stroke-miterlimit:10;}
	.st62{fill:#CBEAFB;}
	.st63{fill:#F0EDF1;}
	.st64{fill:#FDFEFF;}
	.st65{fill:#034A6D;}
	.st66{fill:#043B51;}
	.st67{clip-path:url(#SVGID_4_);}
	.st68{fill:#81C784;}
	.st69{fill:#FC6142;}
	.st70{fill:#FCD156;}
	.st71{fill:#428AB2;}
	.st72{fill:none;stroke:#B7D9F5;stroke-width:3;stroke-miterlimit:10;}
	.st73{fill:#A3D1EE;}
	.st74{fill:#F9B871;}
	.st75{fill:#FDBB71;}
	.st76{fill:#B9D8F5;}
	.st77{fill:#B4D5F4;}
	.st78{fill:#1CB3B7;}
	.st79{fill:#37C6D0;}
	.st80{fill:#FDBA73;}
	.st81{fill:#FEBC72;}
	.st82{fill:#BBDEFA;}
	.st83{fill:#FDBB72;}
	.st84{fill:#FEBA6D;}
	.st85{fill:#8AC1DD;}
	.st86{fill:#FDBC71;}
	.st87{fill:#F5844E;}
	.st88{fill:#FBB040;}
	.st89{fill:#FCBC71;}
	.st90{fill:#F9BA71;}
	.st91{fill:#F9FAFF;}
	.st92{fill:#9ECDDD;}
	
		.st93{opacity:0.6;fill:none;stroke:#CBEAFB;stroke-width:4;stroke-linecap:round;stroke-linejoin:round;stroke-miterlimit:10;enable-background:new    ;}
	.st94{fill:#ECEFF0;}
	.st95{fill:#F26322;}
	.st96{fill:#D0D8DC;}
	.st97{fill:none;stroke:#FFFFFF;stroke-width:2;stroke-linecap:round;stroke-linejoin:round;stroke-miterlimit:10;}
	.st98{fill:#99CF8C;}
	.st99{fill:#37474F;}
	.st100{fill:#71BE72;}
	.st101{fill:#90A4AE;}
	.st102{fill:#BDDDF4;}
	.st103{clip-path:url(#SVGID_6_);fill:#99CF8C;}
	.st104{clip-path:url(#SVGID_8_);fill:#71BE71;}
	.st105{clip-path:url(#SVGID_11_);fill:#ECEFF0;}
	.st106{clip-path:url(#SVGID_13_);fill:#D0D8DC;}
	.st107{clip-path:url(#SVGID_15_);fill:#FBB040;}
	.st108{clip-path:url(#SVGID_17_);fill:#E08F3F;}
	.st109{clip-path:url(#SVGID_19_);fill:#ECEFF0;}
	.st110{clip-path:url(#SVGID_21_);}
	.st111{clip-path:url(#SVGID_23_);fill:#FDD7AD;}
	.st112{clip-path:url(#SVGID_25_);fill:#F7C9A9;}
	.st113{clip-path:url(#SVGID_27_);fill:#79B9E2;}
	.st114{clip-path:url(#SVGID_29_);fill:#57A7DB;}
	.st115{clip-path:url(#SVGID_31_);fill:#FDD7AD;}
	.st116{clip-path:url(#SVGID_33_);fill:#F7C9A9;}
	.st117{clip-path:url(#SVGID_35_);fill:#F4AE7A;}
	.st118{clip-path:url(#SVGID_37_);fill:#F5844E;}
	.st119{fill:#DCE4E7;}
	.st120{fill:#B0BEC5;}
	.st121{fill:none;stroke:#FF0000;stroke-miterlimit:10;}
	.st122{fill:none;stroke:#FF0000;stroke-linecap:round;stroke-miterlimit:10;}
	.st123{fill:none;stroke:#57A7DB;stroke-width:2;stroke-linecap:round;stroke-linejoin:round;stroke-miterlimit:10;}
	.st124{fill:none;stroke:#1CB3B7;stroke-linecap:round;stroke-linejoin:round;stroke-miterlimit:10;}
	.st125{fill:#1E2B30;}
	.st126{fill:#4D4D4D;}
	.st127{fill-rule:evenodd;clip-rule:evenodd;fill:#FFFFFF;}
</style>
<g>
	<g>
		<g>
			<g>
				<g>
					<g>
						<path class="st0" d="M682.2-676.4c0-15-12.3-27.1-27.1-27.1H276c-14.8,0-27,12.1-27,27v253.6h433.3L682.2-676.4L682.2-676.4
							L682.2-676.4z"/>
					</g>
				</g>
			</g>
			<path class="st1" d="M632.1-687.4H298.8c-33.4,0-34,1.7-34,23.3h401.6C666.5-686.4,665.5-687.4,632.1-687.4z"/>
			<g>
				<g>
					<g>
						<path class="st2" d="M206.2-422.8c0.2,13.3,7.4,30.9,16.3,30.9h486.3c8.7,0,16.1-17.7,16.3-30.9H206.2z"/>
					</g>
				</g>
			</g>
			<path class="st0" d="M512.9-405.5c0,2.3-1.9,4-4,4h-86.6c-2.3,0-4-1.9-4-4l0,0c0-2.3,1.9-4,4-4h86.6
				C511-410.1,512.9-408,512.9-405.5L512.9-405.5z"/>
		</g>
		<path class="st3" d="M273.4-437.8h384.7c5.9,0,10.4-4.7,10.4-10.4v-229.9c0-5.9-4.7-10.4-10.4-10.4H273.4
			c-5.9,0-10.4,4.7-10.4,10.4v229.9C262.9-442.3,267.5-437.8,273.4-437.8z"/>
		<rect x="272.4" y="-601.2" class="st4" width="98.3" height="159.3"/>
		<rect x="272.2" y="-601.2" class="st5" width="98.5" height="159.8"/>
		<rect x="379.3" y="-601.2" class="st5" width="280.4" height="159.3"/>
		<rect x="272.2" y="-636.3" class="st6" width="387.2" height="25.8"/>
		<path class="st7" d="M646-617.5h-35.9c-1.3,0-2.3-1.1-2.3-2.3v-7.4c0-1.3,1.1-2.3,2.3-2.3H646c1.3,0,2.3,1.1,2.3,2.3v7.4
			C648.2-618.5,647.3-617.5,646-617.5z"/>
		<circle class="st8" cx="293.7" cy="-572.2" r="9.1"/>
		<circle class="st8" cx="325.2" cy="-572.2" r="9.1"/>
		<path class="st7" d="M300.1-525.1h-13.9c-1.3,0-2.7-1.3-2.7-2.7v-13.9c0-1.3,1.3-2.7,2.7-2.7h13.9c1.3,0,2.7,1.3,2.7,2.7v13.9
			C302.8-526.2,301.6-525.1,300.1-525.1z"/>
		<path class="st7" d="M328.4-525.1h-13.9c-1.3,0-2.7-1.3-2.7-2.7v-13.9c0-1.3,1.3-2.7,2.7-2.7h13.9c1.3,0,2.7,1.3,2.7,2.7v13.9
			C331.1-526.2,329.7-525.1,328.4-525.1z"/>
		<path class="st7" d="M356.3-525.1h-13.7c-1.3,0-2.7-1.3-2.7-2.7v-13.9c0-1.3,1.3-2.7,2.7-2.7h13.9c1.3,0,2.7,1.3,2.7,2.7v13.9
			C359-526.2,357.8-525.1,356.3-525.1z"/>
		<path class="st7" d="M300.5-492.1h-13.9c-1.3,0-2.7-1.3-2.7-2.7v-13.9c0-1.3,1.3-2.7,2.7-2.7h13.9c1.3,0,2.7,1.3,2.7,2.7v13.9
			C303.2-493.2,301.8-492.1,300.5-492.1z"/>
		<path class="st9" d="M292.2-451.8l-8.4-8.4c-0.9-0.9-0.9-2.3,0-3.2l8.4-8.4c0.9-0.9,2.3-0.9,3.2,0l8.4,8.4c0.9,0.9,0.9,2.3,0,3.2
			l-8.4,8.4C294.4-450.9,293.1-450.9,292.2-451.8z"/>
		<path class="st9" d="M319.9-451.8l-8.4-8.4c-0.9-0.9-0.9-2.3,0-3.2l8.4-8.4c0.9-0.9,2.3-0.9,3.2,0l8.4,8.4c0.9,0.9,0.9,2.3,0,3.2
			l-8.4,8.4C322.1-450.9,320.8-450.9,319.9-451.8z"/>
		<path class="st9" d="M348-451.8l-8.4-8.4c-0.9-0.9-0.9-2.3,0-3.2l8.4-8.4c0.9-0.9,2.3-0.9,3.2,0l8.4,8.4c0.9,0.9,0.9,2.3,0,3.2
			l-8.4,8.4C350.2-450.9,348.7-450.9,348-451.8z"/>
		<line class="st5" x1="283.8" y1="-555.8" x2="360.1" y2="-555.8"/>
		<line class="st5" x1="283.8" y1="-481.2" x2="360.1" y2="-481.2"/>
		<rect x="283.2" y="-626.4" class="st3" width="135.1" height="7.8"/>
		<rect x="389.1" y="-591.7" class="st4" width="89.2" height="7.4"/>
		<line class="st10" x1="389.1" y1="-574.2" x2="648.2" y2="-574.2"/>
		<g>
			<rect x="397.8" y="-561.5" class="st4" width="55.1" height="89.6"/>
			<rect x="398.1" y="-561.5" class="st10" width="54.9" height="89.6"/>
			<circle class="st8" cx="425.6" cy="-540.1" r="10.8"/>
			<rect x="403" y="-522.4" class="st3" width="41.2" height="5.7"/>
			<rect x="403" y="-510.8" class="st3" width="44.8" height="5.7"/>
			<rect x="403" y="-500" class="st3" width="32.8" height="5.7"/>
			<rect x="403" y="-488.3" class="st3" width="41.2" height="5.7"/>
			<g>
				<polyline class="st10" points="452.9,-540.1 512.9,-540.1 628.1,-540.1 				"/>
				<polyline class="st10" points="512.9,-542.2 512.9,-502.7 627.6,-502.7 				"/>
				<polyline class="st10" points="551.1,-502.7 551.1,-465.7 625.5,-465.7 				"/>
			</g>
			<path class="st9" d="M511.4-530.4l-8.4-8.4c-0.9-0.9-0.9-2.3,0-3.2l8.4-8.4c0.9-0.9,2.3-0.9,3.2,0l8.4,8.4c0.9,0.9,0.9,2.3,0,3.2
				l-8.4,8.4C513.7-529.4,512.1-529.4,511.4-530.4z"/>
			<path class="st4" d="M549.5-530.4l-8.4-8.4c-0.9-0.9-0.9-2.3,0-3.2l8.4-8.4c0.9-0.9,2.3-0.9,3.2,0l8.4,8.4c0.9,0.9,0.9,2.3,0,3.2
				l-8.4,8.4C551.8-529.4,550.3-529.4,549.5-530.4z"/>
			<path class="st4" d="M481.6-530.8h-13.9c-1.3,0-2.7-1.3-2.7-2.7v-13.7c0-1.3,1.3-2.7,2.7-2.7h13.9c1.3,0,2.7,1.3,2.7,2.7v13.9
				C484.1-531.9,482.9-530.8,481.6-530.8z"/>
			<circle class="st8" cx="625.5" cy="-540.1" r="9.1"/>
			<path class="st9" d="M586.9-530.4l-8.4-8.4c-0.9-0.9-0.9-2.3,0-3.2l8.4-8.4c0.9-0.9,2.3-0.9,3.2,0l8.4,8.4c0.9,0.9,0.9,2.3,0,3.2
				l-8.4,8.4C589.2-529.4,587.7-529.4,586.9-530.4z"/>
			<path class="st9" d="M511.4-492.8l-8.4-8.4c-0.9-0.9-0.9-2.3,0-3.2l8.4-8.4c0.9-0.9,2.3-0.9,3.2,0l8.4,8.4c0.9,0.9,0.9,2.3,0,3.2
				l-8.4,8.4C513.7-491.9,512.1-491.9,511.4-492.8z"/>
			<path class="st4" d="M557.7-493.2h-13.9c-1.3,0-2.7-1.3-2.7-2.7v-13.9c0-1.3,1.3-2.7,2.7-2.7h13.9c1.3,0,2.7,1.3,2.7,2.7v13.9
				C560.4-494.3,559.4-493.2,557.7-493.2z"/>
			<path class="st4" d="M557.7-456.2h-13.9c-1.3,0-2.7-1.3-2.7-2.7v-13.9c0-1.3,1.3-2.7,2.7-2.7h13.9c1.3,0,2.7,1.3,2.7,2.7v13.9
				C560.4-457.5,559.4-456.2,557.7-456.2z"/>
			<path class="st9" d="M586.9-492.8l-8.4-8.4c-0.9-0.9-0.9-2.3,0-3.2l8.4-8.4c0.9-0.9,2.3-0.9,3.2,0l8.4,8.4c0.9,0.9,0.9,2.3,0,3.2
				l-8.4,8.4C589.2-491.9,587.7-491.9,586.9-492.8z"/>
			<path class="st9" d="M586.9-455.8l-8.4-8.4c-0.9-0.9-0.9-2.3,0-3.2l8.4-8.4c0.9-0.9,2.3-0.9,3.2,0l8.4,8.4c0.9,0.9,0.9,2.3,0,3.2
				l-8.4,8.4C589.2-455,587.7-455,586.9-455.8z"/>
			<circle class="st8" cx="625.5" cy="-502.7" r="9.1"/>
			<circle class="st8" cx="625.5" cy="-465.7" r="9.1"/>
		</g>
	</g>
	<path class="st5" d="M539.2-653.5H390.9c-1.9,0-3.6-1.5-3.6-3.6v-9.9c0-1.9,1.5-3.6,3.6-3.6h148.2c1.9,0,3.6,1.5,3.6,3.6v9.9
		C542.8-655,541-653.5,539.2-653.5z"/>
	<g>
		<g>
			<g>
				<g>
					<circle id="SVGID_10_" class="st11" cx="641.6" cy="-663" r="12.3"/>
				</g>
			</g>
			<g>
				<g>
					<g>
						<g>
							<g>
								<defs>
									<circle id="SVGID_1_" cx="641.6" cy="-663" r="12.3"/>
								</defs>
								<clipPath id="SVGID_2_">
									<use xlink:href="#SVGID_1_"  style="overflow:visible;"/>
								</clipPath>
								<circle class="st12" cx="641.6" cy="-651.4" r="8.7"/>
							</g>
						</g>
					</g>
				</g>
			</g>
		</g>
		<circle class="st4" cx="641.6" cy="-665.5" r="3.8"/>
	</g>
	<rect x="608" y="-666.6" class="st11" width="8.7" height="8.7"/>
	<rect x="594.7" y="-666.6" class="st11" width="8.7" height="8.7"/>
	<rect x="581" y="-666.6" class="st11" width="8.7" height="8.7"/>
	<circle class="st5" cx="396" cy="-663" r="3"/>
	<line class="st5" x1="398.3" y1="-661.1" x2="401.3" y2="-657.8"/>
	<g>
		<path class="st13" d="M298.7-680c2.1-2.1,4.9-3.5,8.1-3.5c4.2,0,7.9,2.3,9.8,5.8c1.7-0.8,3.6-1.2,5.5-1.2
			c7.6,0,13.7,6.2,13.7,13.8s-6.1,13.8-13.7,13.8c-0.9,0-1.8-0.1-2.7-0.3c-1.7,3.1-5,5.1-8.7,5.1c-1.6,0-3.1-0.4-4.4-1
			c-1.7,4.1-5.8,7-10.5,7c-4.9,0-9.1-3.1-10.7-7.5c-0.7,0.1-1.4,0.2-2.2,0.2c-5.9,0-10.6-4.8-10.6-10.7c0-4,2.1-7.4,5.3-9.3
			c-0.7-1.5-1-3.2-1-4.9c0-6.8,5.5-12.3,12.4-12.3C292.8-684.9,296.4-682.9,298.7-680"/>
		<path class="st3" d="M281.4-661.8C281.4-661.7,281.4-661.7,281.4-661.8c0.1,0.2,0.2,0.2,0.4,0.3c0.6,0.3,1.3,0.4,1.9,0.4
			c1.3,0,2.1-0.7,2.1-1.8l0,0c0-1-0.9-1.4-1.8-1.7h-0.1c-0.6-0.2-1.2-0.4-1.2-0.8l0,0c0-0.4,0.3-0.6,0.8-0.6c0.6,0,1.2,0.2,1.7,0.4
			c0,0,0.1,0.1,0.2,0c0-0.1,0.2-0.7,0.3-0.7c0-0.1,0-0.1-0.1-0.1c-0.5-0.3-1.2-0.5-1.9-0.5h-0.1c-1.2,0-2,0.7-2,1.8l0,0
			c0,1.1,0.9,1.4,1.8,1.7h0.1c0.6,0.2,1.2,0.4,1.2,0.8l0,0c0,0.4-0.4,0.7-0.9,0.7c-0.2,0-0.9,0-1.7-0.5c-0.1-0.1-0.1-0.1-0.2-0.1
			c0,0-0.1-0.1-0.2,0.1L281.4-661.8z"/>
		<path class="st3" d="M300.5-661.8C300.5-661.7,300.5-661.7,300.5-661.8c0.1,0.2,0.2,0.2,0.4,0.3c0.6,0.3,1.3,0.4,1.9,0.4
			c1.3,0,2.1-0.7,2.1-1.8l0,0c0-1-0.9-1.4-1.8-1.7H303c-0.6-0.2-1.2-0.4-1.2-0.8l0,0c0-0.4,0.3-0.6,0.8-0.6c0.6,0,1.2,0.2,1.7,0.4
			c0,0,0.1,0.1,0.2,0c0-0.1,0.2-0.7,0.3-0.7c0-0.1,0-0.1-0.1-0.1c-0.5-0.3-1.2-0.5-1.9-0.5h-0.1c-1.2,0-2,0.7-2,1.8l0,0
			c0,1.1,0.9,1.4,1.8,1.7h0.1c0.6,0.2,1.2,0.4,1.2,0.8l0,0c0,0.4-0.4,0.7-0.9,0.7c-0.2,0-0.9,0-1.7-0.5c-0.1-0.1-0.1-0.1-0.2-0.1
			c0,0-0.1-0.1-0.2,0.1L300.5-661.8z"/>
		<path class="st3" d="M314.6-665.1c-0.1-0.4-0.3-0.7-0.5-0.9c-0.2-0.3-0.5-0.5-0.8-0.6c-0.3-0.2-0.7-0.2-1.2-0.2
			c-0.4,0-0.8,0.1-1.2,0.2c-0.3,0.2-0.6,0.4-0.8,0.6c-0.2,0.3-0.4,0.6-0.5,0.9c-0.1,0.4-0.2,0.8-0.2,1.2s0.1,0.8,0.2,1.2
			s0.3,0.7,0.5,0.9c0.2,0.3,0.5,0.5,0.8,0.6c0.3,0.2,0.7,0.2,1.2,0.2c0.4,0,0.8-0.1,1.2-0.2c0.3-0.2,0.6-0.4,0.8-0.6
			c0.2-0.3,0.4-0.6,0.5-0.9c0.1-0.4,0.2-0.8,0.2-1.2C314.8-664.4,314.7-664.8,314.6-665.1 M313.5-664c0,0.6-0.1,1.1-0.3,1.5
			c-0.2,0.3-0.6,0.5-1.1,0.5s-0.8-0.2-1.1-0.5c-0.2-0.4-0.3-0.8-0.3-1.5c0-0.6,0.1-1.1,0.3-1.5c0.2-0.3,0.6-0.5,1.1-0.5
			s0.8,0.2,1.1,0.5C313.4-665.1,313.5-664.6,313.5-664"/>
		<path class="st3" d="M323.6-662.1c0-0.1-0.1-0.1-0.1-0.1c-0.2,0.1-0.3,0.1-0.5,0.1s-0.4,0-0.6,0c-0.5,0-0.9-0.2-1.2-0.5
			c-0.3-0.3-0.5-0.8-0.5-1.5c0-0.6,0.2-1.1,0.4-1.4c0.3-0.4,0.7-0.5,1.2-0.5c0.4,0,0.8,0.1,1.2,0.2c0,0,0.1,0,0.1-0.1
			c0.1-0.3,0.2-0.5,0.3-0.7c0-0.1,0-0.1-0.1-0.1c-0.1-0.1-0.5-0.1-0.7-0.2c-0.2,0-0.5-0.1-0.8-0.1c-0.5,0-0.9,0.1-1.2,0.2
			c-0.3,0.2-0.6,0.4-0.9,0.6c-0.2,0.3-0.4,0.6-0.5,0.9c-0.1,0.4-0.2,0.8-0.2,1.2c0,0.9,0.2,1.6,0.7,2.2c0.5,0.5,1.2,0.8,2.1,0.8
			c0.6,0,1.1-0.1,1.5-0.3c0,0,0.1,0,0-0.1L323.6-662.1z"/>
		<path class="st3" d="M329.2-665.3c-0.1-0.3-0.3-0.7-0.5-0.9c-0.2-0.3-0.5-0.4-0.7-0.5c-0.3-0.1-0.7-0.2-1.1-0.2
			c-0.5,0-0.9,0.1-1.2,0.2c-0.3,0.2-0.6,0.4-0.8,0.6c-0.2,0.3-0.4,0.6-0.5,1s-0.2,0.8-0.2,1.2s0.1,0.8,0.2,1.2s0.3,0.7,0.5,0.9
			c0.2,0.3,0.6,0.5,0.9,0.6c0.4,0.1,0.8,0.2,1.3,0.2c1.1,0,1.6-0.2,1.9-0.4c0,0,0.1-0.1,0-0.2l-0.2-0.7c0-0.1-0.1-0.1-0.1-0.1
			c-0.3,0.1-0.6,0.3-1.5,0.3c-0.6,0-1-0.2-1.3-0.4c-0.3-0.3-0.4-0.7-0.4-1.2h3.7c0,0,0.1,0,0.1-0.1
			C329.3-663.8,329.4-664.5,329.2-665.3 M325.5-664.6c0.1-0.4,0.1-0.6,0.3-0.9c0.2-0.3,0.6-0.5,1.1-0.5s0.8,0.2,1,0.5
			c0.2,0.2,0.2,0.5,0.2,0.9H325.5z"/>
		<path class="st3" d="M299.6-665.3c-0.1-0.3-0.3-0.7-0.5-0.9c-0.2-0.3-0.5-0.4-0.7-0.5c-0.3-0.1-0.7-0.2-1.1-0.2
			c-0.5,0-0.9,0.1-1.2,0.2c-0.3,0.2-0.6,0.4-0.8,0.6c-0.2,0.3-0.4,0.6-0.5,1s-0.2,0.8-0.2,1.2s0.1,0.8,0.2,1.2s0.3,0.7,0.5,0.9
			c0.2,0.3,0.6,0.5,0.9,0.6c0.4,0.1,0.8,0.2,1.3,0.2c1.1,0,1.6-0.2,1.9-0.4c0,0,0.1-0.1,0-0.2l-0.2-0.7c0-0.1-0.1-0.1-0.1-0.1
			c-0.3,0.1-0.6,0.3-1.5,0.3c-0.6,0-1-0.2-1.3-0.4c-0.3-0.3-0.4-0.7-0.4-1.2h3.7c0,0,0.1,0,0.1-0.1
			C299.7-663.8,299.9-664.5,299.6-665.3 M296-664.6c0.1-0.4,0.1-0.6,0.3-0.9c0.2-0.3,0.6-0.5,1.1-0.5s0.8,0.2,1,0.5
			c0.2,0.2,0.2,0.5,0.2,0.9H296z"/>
		<path class="st3" d="M289.5-664.7c-0.1,0-0.3,0-0.6,0c-0.3,0-0.6,0-0.9,0.1s-0.5,0.2-0.8,0.4c-0.2,0.2-0.4,0.4-0.5,0.6
			s-0.2,0.5-0.2,0.8s0.1,0.6,0.2,0.8s0.3,0.4,0.5,0.6c0.2,0.1,0.5,0.3,0.8,0.3c0.3,0.1,0.6,0.1,1,0.1s0.8,0,1.1-0.1
			c0.4-0.1,0.8-0.2,0.9-0.2s0.3-0.1,0.3-0.1c0.1,0,0.1-0.1,0.1-0.1v-3.4c0-0.7-0.2-1.3-0.6-1.6s-1-0.5-1.7-0.5c-0.3,0-0.7,0-1,0.1
			c0,0-0.8,0.2-1.1,0.4c0,0-0.1,0,0,0.1l0.3,0.7c0,0.1,0.1,0.1,0.1,0.1s0,0,0.1,0c0.7-0.4,1.6-0.4,1.6-0.4c0.4,0,0.7,0.1,0.9,0.2
			c0.2,0.2,0.3,0.4,0.3,0.9v0.2C289.8-664.7,289.5-664.7,289.5-664.7 M288-662.1c-0.1-0.1-0.2-0.1-0.2-0.2c-0.1-0.1-0.1-0.3-0.1-0.5
			c0-0.3,0.1-0.6,0.3-0.7c0,0,0.3-0.3,1.1-0.3c0.5,0,1,0.1,1,0.1v1.7c0,0-0.5,0.1-1,0.1C288.3-661.9,288-662.1,288-662.1"/>
		<path class="st3" d="M319.2-666.6c0-0.1,0-0.1-0.1-0.1s-0.4-0.1-0.6-0.1c-0.5,0-0.7,0-1,0.2c-0.2,0.1-0.5,0.3-0.6,0.5v-0.4
			c0-0.1,0-0.1-0.1-0.1h-0.9c-0.1,0-0.1,0-0.1,0.1v5.5c0,0.1,0,0.1,0.1,0.1h1c0.1,0,0.1,0,0.1-0.1v-2.7c0-0.4,0-0.7,0.1-1
			c0.1-0.2,0.2-0.4,0.3-0.5c0.1-0.1,0.3-0.2,0.5-0.3s0.4-0.1,0.5-0.1c0.2,0,0.4,0.1,0.4,0.1c0.1,0,0.1,0,0.1-0.1
			C319-666,319.2-666.5,319.2-666.6"/>
		<path class="st3" d="M310.1-669.2c-0.1,0-0.2-0.1-0.4-0.1c-0.1,0-0.3,0-0.5,0c-0.7,0-1.2,0.2-1.6,0.6c-0.4,0.4-0.6,0.9-0.7,1.7
			v0.2h-0.8c0,0-0.1,0-0.1,0.1l-0.1,0.8c0,0.1,0,0.1,0.1,0.1h0.8l-0.8,4.6c-0.1,0.4-0.1,0.7-0.2,0.9s-0.2,0.4-0.3,0.5
			c-0.1,0.1-0.2,0.2-0.3,0.3c-0.1,0-0.3,0.1-0.4,0.1s-0.2,0-0.3,0c-0.1,0-0.1,0-0.2-0.1c0,0-0.1,0-0.1,0.1s-0.2,0.7-0.3,0.7
			c0,0.1,0,0.1,0.1,0.1s0.2,0.1,0.3,0.1c0.2,0,0.4,0.1,0.5,0.1c0.3,0,0.6,0,0.9-0.1s0.5-0.3,0.7-0.5s0.3-0.5,0.5-0.8
			c0.1-0.3,0.2-0.8,0.3-1.2l0.8-4.7h1.2c0,0,0.1,0,0.1-0.1l0.1-0.8c0-0.1,0-0.1-0.1-0.1h-1.2c0,0,0.1-0.4,0.2-0.8
			c0.1-0.2,0.2-0.3,0.3-0.4c0.1-0.1,0.2-0.2,0.3-0.2c0.1,0,0.2-0.1,0.4-0.1c0.1,0,0.2,0,0.3,0c0.1,0,0.2,0,0.2,0
			c0.1,0,0.1,0,0.2-0.1l0.3-0.8C310.2-669.1,310.1-669.2,310.1-669.2"/>
		<path class="st3" d="M293.6-661.2c0,0.1,0,0.1-0.1,0.1h-1c-0.1,0-0.1-0.1-0.1-0.1v-7.9c0-0.1,0-0.1,0.1-0.1h1c0.1,0,0.1,0,0.1,0.1
			V-661.2z"/>
	</g>
</g>
<g>
	<path class="st14" d="M80.6-530.7l-1,3.6c0,0-7.5,4.2-7.4,4.5l1,6.4c0,0.4,8.5,2.5,8.5,2.5l1.9,3.3c0,0-2.2,8.1-1.9,8.5l5.1,3.9
		c0.3,0.3,7.5-4.3,7.5-4.3l3.6,1c0,0,4.3,7.5,4.6,7.5l6.4-0.9c0.4,0,2.2-8.3,2.2-8.3l3.3-1.9c0,0,8.3,2.5,8.7,2l3.9-5.1
		c0.3-0.3-4.5-7.5-4.5-7.5l1-3.6c0,0,7.5-4.2,7.4-4.5l-1-6.4c0-0.4-8.5-2.5-8.5-2.5l-1.9-3.3c0,0,2.2-8.1,1.9-8.5l-5.1-3.9
		c-0.3-0.3-7.5,4.3-7.5,4.3l-3.6-1c0,0-4.3-7.5-4.6-7.5l-6.4,0.9c-0.4,0-2.2,8.3-2.2,8.3l-3.3,1.9c0,0-8.3-2.5-8.7-2l-3.9,4.9
		C75.9-537.9,80.6-530.7,80.6-530.7z M94.1-528.8c3-4.1,9-4.8,13.2-1.6s4.9,9,1.9,13.2c-3,4.1-9,4.8-13.2,1.6S91.1-524.6,94.1-528.8
		z"/>
	<path class="st15" d="M137.9-498.9l-0.5,1.6c0,0-3.4,1.8-3.3,2l0.5,2.8c0,0.2,3.9,1.1,3.9,1.1l0.8,1.5c0,0-1,3.6-0.8,3.9l2.3,1.7
		c0.1,0.1,3.4-1.9,3.4-1.9l1.6,0.5c0,0,1.9,3.4,2,3.4l2.8-0.3c0.2,0,1-3.6,1-3.6l1.5-0.8c0,0,3.6,1.1,3.9,0.9l1.7-2.3
		c0.1-0.1-2-3.4-2-3.4l0.5-1.6c0,0,3.4-1.8,3.3-2l-0.6-3.1c0-0.2-3.9-1.1-3.9-1.1l-0.8-1.5c0,0,1-3.6,0.8-3.9l-2.3-1.7
		c-0.1-0.1-3.4,1.9-3.4,1.9l-1.6-0.5c0,0-1.9-3.4-2-3.4l-2.8,0.3c-0.2,0-1,3.6-1,3.6l-1.5,0.8c0,0-3.6-1.1-3.9-0.9l-1.7,2.2
		C135.7-502.1,137.9-498.9,137.9-498.9z M143.8-498.1c1.4-1.8,4-2.2,5.9-0.7c1.8,1.4,2.2,4,0.8,5.9c-1.4,1.8-4,2.2-5.9,0.7
		C142.7-493.7,142.5-496.2,143.8-498.1z"/>
	<path class="st15" d="M856.7-523l-0.5,1.6c0,0-3.4,1.8-3.3,2l0.5,2.8c0,0.2,3.9,1.1,3.9,1.1l0.8,1.5c0,0-1,3.6-0.8,3.9l2.3,1.7
		c0.1,0.1,3.4-1.9,3.4-1.9l1.6,0.5c0,0,1.9,3.4,2,3.4l2.8-0.3c0.2,0,1-3.6,1-3.6l1.5-0.8c0,0,3.6,1.1,3.9,0.9l1.7-2.3
		c0.1-0.1-2-3.4-2-3.4l0.5-1.6c0,0,3.4-1.8,3.3-2l-0.6-3.1c0-0.2-3.9-1.1-3.9-1.1l-0.8-1.5c0,0,1-3.6,0.8-3.9l-2.3-1.7
		c-0.1-0.1-3.4,1.9-3.4,1.9l-1.6-0.5c0,0-1.9-3.4-2-3.4l-2.8,0.3c-0.2,0-1,3.6-1,3.6l-1.5,0.8c0,0-3.6-1.1-3.9-0.9l-1.7,2.2
		C854.5-526.2,856.7-523,856.7-523z M862.6-522.2c1.4-1.8,4-2.2,5.9-0.7c1.8,1.4,2.2,4,0.8,5.9c-1.4,1.8-4,2.2-5.9,0.7
		S861.2-520.3,862.6-522.2z"/>
	<path class="st15" d="M931.6-685.7l-0.3,1.1c0,0-2.3,1.2-2.2,1.4l0.3,1.9c0,0.2,2.6,0.8,2.6,0.8l0.5,1c0,0-0.7,2.4-0.5,2.6l1.5,1.1
		c0.1,0.1,2.3-1.3,2.3-1.3l1.1,0.3c0,0,1.3,2.3,1.4,2.3l1.9-0.2c0.2,0,0.7-2.4,0.7-2.4l1-0.5c0,0,2.4,0.8,2.6,0.6l1.1-1.5
		c0.1-0.1-1.4-2.3-1.4-2.3l0.3-1.1c0,0,2.3-1.2,2.2-1.4l-0.4-2c0-0.2-2.6-0.8-2.6-0.8l-0.5-1c0,0,0.7-2.4,0.5-2.6l-1.5-1.1
		c-0.1-0.1-2.3,1.3-2.3,1.3l-1.1-0.3c0,0-1.3-2.3-1.4-2.3l-1.9,0.2c-0.2,0-0.7,2.4-0.7,2.4l-1,0.5c0,0-2.4-0.8-2.6-0.6l-1.1,1.4
		C930.2-687.8,931.6-685.7,931.6-685.7z M935.5-685.2c0.9-1.2,2.6-1.4,3.9-0.5c1.2,0.9,1.4,2.6,0.5,3.9c-0.9,1.2-2.6,1.4-3.9,0.5
		C934.7-682.2,934.6-683.9,935.5-685.2z"/>
</g>
<g>
	<path class="st16" d="M821-429.5H687.6c-23.1,0-42-18.8-42-42s18.8-42,42-42H821v-37.8H687.6c-43.9,0-79.8,35.9-79.8,79.8l0,0
		c0,43.9,35.9,79.8,79.8,79.8H821V-429.5L821-429.5z"/>
	<path class="st17" d="M607.8-471.5L607.8-471.5h37.8c0-23.1,18.8-42,42-42H821v-37.8H687.6C643.7-551.2,607.8-515.3,607.8-471.5z"
		/>
	<rect x="769.8" y="-429.5" class="st18" width="51.2" height="37.8"/>
	<rect x="769.8" y="-551.3" class="st18" width="51.2" height="37.8"/>
	<polygon class="st19" points="731.1,-489.5 728.5,-483.1 722.1,-485.4 727.6,-494.9 	"/>
	<path class="st20" d="M738.2-498.9c0,0,0.3,8.6-3.9,10.7s-7.9-4.3-8.6-5.7c-0.6-1.3-1.6-3.4-1.6-3.4s4.8-5.8,4.9-5.8
		s6.8,1.1,7.1,1.3C736.3-501.6,738.2-498.9,738.2-498.9z"/>
	<path class="st21" d="M742.6-499.1c1.6-2.8-2.7-2.5-3.8-3s0.8-3.9-1.7-5.1s-2.5,1.5-4,1.2s-2.4-3.4-4.1-2.9s-1.9,2.2-3.2,3.3
		s-4.9,0.4-4.8,2.4s1.7,1.9,2.1,3c0.4,1.1-1.6,3-0.2,4.9c1.4,1.9,2.2,2.4,3.1,2.1c0.9-0.3,1.1-2-0.4-2.8s0.1-2.6,2.5-1.6
		s-0.3-3.3,2.2-3.1c2.5,0.2,3.1,3.3,6.7,3.2S741.8-497.7,742.6-499.1z"/>
	<path class="st22" d="M768.3-412.2c0.2,0.4,1.6,5.4,1.6,5.4l3.3,0.1c0,0,1.2-2.4,1.1-2.5s-1.6-4.2-1.6-4.2L768.3-412.2z"/>
	<polygon class="st23" points="778.2,-415 778.7,-413.1 779,-411.7 777.1,-410.7 774.4,-410.7 772.7,-415 775.7,-415.9 	"/>
	<path class="st24" d="M774.4-410.7c0,0,3.6-1.3,4.3-2.4c6.7,0.4,7,0.9,9,0.7c1.9-0.2,4.6,0.1,4.4,4.5c-3.6,0.6-17.7,2.1-17.7,2.1
		S773.3-408.6,774.4-410.7z"/>
	<path class="st25" d="M780.1-409.6c0-0.1,0.2-3.4,0.2-3.4"/>
	<line class="st25" x1="782.3" y1="-410" x2="782.8" y2="-412.7"/>
	<path class="st26" d="M769.8-408c0,0,3.6-1.3,4.3-2.4c6.7,0.4,7,0.9,9,0.7c2-0.2,4.6,0.1,4.4,4.5c-3.6,0.6-17.7,2.1-17.7,2.1
		S768.7-406,769.8-408z"/>
	<path class="st25" d="M775.5-406.9c0-0.1,0.2-3.4,0.2-3.4"/>
	<line class="st25" x1="778" y1="-407" x2="778.1" y2="-410"/>
	<path class="st27" d="M772.7-415h5.5c0,0,3.2-23.7,0.8-33.8c-2.4-10.1-3.8-11.5-15.2-10s-6.4,12.3-6.4,12.3l9.3,6.8l3.2,14
		L772.7-415z"/>
	<path class="st24" d="M708.9-444.6c0,0,0.7,20.7,20.4,20.5c19.6-0.2,32-14.7,32-14.7s3.9,24.3,6.4,27.1c3,0.1,5.8-0.5,5.8-0.5
		s3-24.3,1.4-32.3s-4.9-16.5-20-12.3C739.8-452.6,708.9-444.6,708.9-444.6z"/>
	<path class="st28" d="M725.2-486.4c3.3-0.2,10.6,5.9,10.7,18.6c0.1,12.6,0.1,12.6,0.1,12.6s19.9-8.6,25.9-8.3c6,0.3,7,3.2,7.2,5.6
		c0.1,2.4-1.2,1.7-1.4-0.2c-0.2-1.8-1.7,1.4-3.9,1.2c-2.2-0.3-2.6-2-4.8-1.3c-2.2,0.8-18.3,10.2-20.6,11.1s-5.5,1.6-13.3,2
		c-7.9,0.3-15.7,0.5-16.3,0.5C709.3-463.5,712.6-485.5,725.2-486.4z"/>
	<polyline class="st29" points="784.8,-477.5 773.8,-454.3 754.7,-458.6 	"/>
	<path class="st30" d="M761.9-463.6c-6-0.3-25.9,8.3-25.9,8.3s0,0-0.1-11.7c-3,0.1-10.3,0.4-10.3,0.4s0.1,21,7.2,20.8
		c2.7-0.4,4.3-0.8,5.7-1.4c2.3-0.9,18.4-10.3,20.6-11.1c2.2-0.8,2.6,1,4.8,1.3s3.6-3,3.9-1.2c0.2,1.8,1.6,2.6,1.4,0.2
		C769-460.4,767.9-463.3,761.9-463.6z"/>
</g>
<g>
	<path class="st31" d="M940.3-399.7v-4.2h6.8l0.1,4.2c0,0-1.7,2.5-1.8,2.5c-0.2,0-3.5-0.2-3.7-0.2
		C941.4-397.4,940.3-399.7,940.3-399.7z"/>
	<path class="st32" d="M895.9-401.1l0.3-3.8h7l-0.5,3.8l-2.3,2.4c0,0-3.2,0.1-3.4,0C896.9-398.8,895.9-401.1,895.9-401.1z"/>
	<path class="st33" d="M947.2-399.7c-0.4-0.4-2,1.6-6.9,0c-6,4.3-9,5.2-11.4,5.4c-2.5,0.2-2.4,3.4-2.4,3.4s7.2,0,9.2,0
		s5.3-2.4,7.5-2.4c0,1.6,0,2.3,0,2.3h5.4C948.6-391.1,948.8-398,947.2-399.7z"/>
	<path class="st34" d="M902.8-401.1c-0.4-0.4-2,1.6-6.9,0c-6,4.3-9,5.2-11.4,5.4c-2.5,0.2-2.4,3.4-2.4,3.4s7.2,0,9.2,0
		s5.3-2.4,7.5-2.4c0,1.6,0,2.3,0,2.3h5.4C904.2-392.5,904.5-399.4,902.8-401.1z"/>
	<path class="st35" d="M893-544h20.9v62.4c0,0-9.3,77.1-9.7,78.5c-3.3,0.3-9.5,0-9.5,0S892.7-540.9,893-544z"/>
	<path class="st36" d="M934.5-544h-31.4c0,0,0.5,29.7,12.2,66.9c11.6,37.2,22.2,73.2,22.2,73.2l11.1,0.8c0,0-12.5-72.5-13.1-90
		C934.9-510.6,934.5-544,934.5-544z"/>
	<path class="st37" d="M915.7-635.2l0.5-12.6c0,0-2.6-0.4-2.9-0.3c-0.3,0.1-12.6,4.8-12.6,4.8s0.2,18.1,0,18.5s0.3,5.6,0.3,5.6
		s1.6,3.3,5.6,2.6s7.1-2.2,7.6-5.8C914.7-626.1,915.7-635.2,915.7-635.2z"/>
	<path class="st38" d="M896.9-652.9c0,0-2.8,12.1-1,19.1s10.9,2.5,11.3,2.1c0.4-0.4,3.1-20.4,3.1-20.4l-5-2.8L896.9-652.9z"/>
	<path class="st39" d="M917-637.7c-0.9,6.4-2.9,8.7-2.6,3.4s1.3-12.6-1.2-11.8c-2.4,0.8-2.5,7.6-1.8,12.6s-7.7,10.9-12.3,10.3
		c-4.6-0.7-4.7-7.3-4.1-11.2c0.6-3.9,3.3,1.7,6.4,1.3c3.2-0.4,5.4-6,5.6-12.3c0.2-6.3-0.3-8.1-5.2-6.3c-4.9,1.7-10,1-9.7-3.1
		s1.8-3.8,5.9-2.4c4.1,1.4,8.8-3,13.8-1.5S919.1-652.1,917-637.7z"/>
	<path class="st40" d="M930.7-540.9c0,0-0.4,12.5-9.5,12.9s-7.9-2.8-3.4-5.5c4.5-2.8,7.6-9.9,7.6-9.9L930.7-540.9z"/>
	<path class="st9" d="M863.6-650.1c0,0,16.8,11,21.6,10.5c4.8-0.6,7.7-0.7,7.7,4.7s-1.6,5.8-6,5c-4.4-0.9-18.3,0.6-23.7,6.4
		C860.7-633.8,863.6-650.1,863.6-650.1z"/>
	<ellipse class="st41" cx="862" cy="-637.1" rx="4" ry="14.1"/>
	<path class="st42" d="M865.8-641.9c0.2,1.5,0.2,3.1,0.2,4.7c0,1.7-0.1,3.3-0.2,4.7c-1.9-0.7-3.3-2.6-3.3-4.7
		C862.5-639.3,863.9-641.1,865.8-641.9z"/>
	<path class="st9" d="M887.7-631.4c0,0,1.2,14.3-2.9,16.3s-9.3,2.6-9.3,2.6s0.1-5.1,0.4-5.5c0.3-0.4,4.4-4,4.4-4s1.4-7.5,0.4-9.4
		C879.7-633.3,887.7-631.4,887.7-631.4z"/>
	<path class="st38" d="M870.4-609.7c0,0,1.1-11.1,7.5-12.8s6.6,3.7,1.7,5.2s-1.3,5.5,1.5,3.3s1.6,2-3.3,4.1
		C872.9-607.7,870.4-609.7,870.4-609.7z"/>
	<path class="st43" d="M895.3-616.1c0,0-15.2,29.7-17,30.7s-1-19.4,0-24.5c-3.6-0.2-9.9,0.3-9.9,0.3s-11.7,32.2-5.2,45.1
		c6.5,12.9,29-10.5,29-10.5s6.9-9.2,7.1-10.2C899.6-586.1,895.3-616.1,895.3-616.1z"/>
	<path class="st11" d="M893-544h30.3l0,0c1.6,3.2,5.1,4.8,8.8,4.4c9.3-14.6,15.4-33,17.7-38.7c2.2-5.7-8.9-23.5-17.9-35.1
		s-17.7-9.1-17.7-9.1l-13.5,1.2c0,0-8,0-8.5,23S893-544,893-544z M916-601L916-601L916-601z M916.8-600.3L916.8-600.3
		C916.7-600.3,916.7-600.3,916.8-600.3C916.7-600.3,916.7-600.3,916.8-600.3z M913.8-603L913.8-603L913.8-603z M913.5-603.3
		L913.5-603.3L913.5-603.3z"/>
	<g>
		<path class="st43" d="M923.3-544c0.7-2.7,1.4-5.4,2.1-8.1c0.7-2.7,1.3-5.4,2-8.1c1.2-5.4,2.5-10.9,3-16.4c0.1-1.4,0.2-2.8,0.2-4.1
			c0-1.4-0.5-2.6-1.1-3.8c-1.2-2.4-3-4.6-4.7-6.8c-1.8-2.2-3.6-4.2-5.6-6.2c-1.9-2-3.9-4-5.9-6c4.3,3.6,8.3,7.5,12,11.7
			c1.8,2.1,3.6,4.3,4.9,6.9c0.4,0.6,0.6,1.3,0.9,2c0.2,0.7,0.3,1.5,0.4,2.2c0.1,1.4,0,2.9-0.1,4.3c-0.3,2.8-0.8,5.6-1.4,8.3
			c-0.6,2.7-1.2,5.5-1.9,8.2C926.6-554.7,925.1-549.3,923.3-544z"/>
	</g>
</g>
<g>
	<polygon class="st28" points="191.9,-668.4 182.4,-649 161,-645.9 176.5,-630.9 172.8,-609.6 191.9,-619.6 211,-609.6 
		207.3,-630.9 222.8,-645.9 201.4,-649 	"/>
	<polygon class="st44" points="172.8,-609.6 176.5,-630.9 161,-645.9 182.4,-649 191.9,-668.4 191.9,-619.6 	"/>
	<polygon class="st45" points="198.8,-405.3 198.8,-395.9 193.7,-395 194.3,-405.3 	"/>
	<path class="st46" d="M268.9-432.4c0,0-6.5-3-6.6-3s-1.4,4.1-1.4,4.1l5.6,3.5L268.9-432.4z"/>
	<path class="st17" d="M198.8-397.6c0,0,0.6,3.2,0.2,5.8c-2.6,0-16.8,0-16.8,0s0.1-5.8,4-5.8s3.9,0.2,5.7,0.2s1.9-0.4,1.9-0.4
		L198.8-397.6z"/>
	<path class="st17" d="M268.2-433c0,0,3.2,0.7,5.4,2.1c-1,2.4-6.6,15.5-6.6,15.5s-5.3-2.3-3.7-5.9c1.5-3.6,1.7-3.5,2.4-5.1
		s0.3-1.9,0.3-1.9L268.2-433z"/>
	<path class="st40" d="M246.3-525.3c0,0,11.3,26.4,12.5,27.5c1.2,1.2,8-1.2,9.1,5.3s-3.9,6-6,2.1c-2.1-4-3.9,1.5-8.7-7.1
		c-4.9-8.6-14.1-23.4-14.1-23.4v-4.1L246.3-525.3z"/>
	<path class="st47" d="M179.8-586.4c0,0-6.8-4.3-7.7-6.2s2.6-26.1,4.5-28s6.4-4.1,7.6-4.2c1.2-0.2,1.4-2.3-3-0.9
		c-4.4,1.4-6.8,0.3-8.6,5.1s-9.1,25.3-9.6,28.1s-0.8,5.4,3.8,9s7.6,1,7.6,1L179.8-586.4z"/>
	<path class="st16" d="M225.7-503.9c0,0,6.4,5.4,5.5,15.2c-0.9,9.8-5.3,26.5,2.8,32.2s29.5,21.1,29.5,21.1s-1,4.9-1.9,4.9
		s-35.4-5.3-43.8-20.3c-8.4-15-8.7-34.6-8.7-34.6l1.7-16.7L225.7-503.9z"/>
	<path class="st17" d="M216.7-499.3c0,0,3.3,12.7-7.7,25.2c-10.9,12.5-8.7,21.8-6,34.7c2.8,13-3,35.7-3,35.7l-5.3,0.1
		c0,0-8.8-49.7-9.5-61.6c-0.7-12,0.7-37.6,8.8-43.9C202.3-515.3,216.7-499.3,216.7-499.3z"/>
	<path class="st48" d="M246.3-525.3l-7.2,4.4l-12.9-17c0,0-0.3,30.4,0.8,35.4c-5.5,6-22.9,4.1-34.1-3.9c-1.2-16.9-2.1-51.2-1.9-51.7
		c0.1-0.5-2.3-6-7.5-9.8c-5.1-3.7-16.6-15.7-16.6-15.7s11.3-3.6,12.9-2.8s21.4,13.5,21.4,13.5l19.2,8.6l7.3,1.9
		C227.6-562.4,237.9-549.9,246.3-525.3z"/>
	
		<rect x="171.8" y="-629.2" transform="matrix(0.9839 -0.1787 0.1787 0.9839 114.9479 21.937)" class="st28" width="14.9" height="4.2"/>
	<polygon class="st49" points="186.9,-626.4 186.9,-626.4 191.9,-629.4 186.2,-630.5 186.2,-630.5 	"/>
	
		<rect x="170.7" y="-627.7" transform="matrix(0.9839 -0.1787 0.1787 0.9839 114.5517 20.5404)" class="st50" width="1.2" height="4.2"/>
	<path class="st51" d="M170.7-623.4l0.4-0.1l-0.8-4.2l-0.4,0.1c-0.6,0.1-1,0.7-0.9,1.3l0.4,1.9C169.5-623.7,170.1-623.3,170.7-623.4
		z"/>
	<polygon class="st51" points="189.4,-629.9 191.9,-629.4 189.7,-628.1 	"/>
	<path class="st47" d="M180.6-631.5c-2.9,0.2-3.5,2.6-3.5,2.6l5.2-0.9c0,0,0.6,0.3,1.2,0.1C184.2-629.8,186.3-631.8,180.6-631.5z"/>
	<path class="st39" d="M222.9-600.8c-12.2-5.9-18.8,12.6-21.1,22.1s-12.6,5.9-18.3,17.5s1.8,17,9.5,16.5s3.2,7.6,16.2,6
		c13-1.5,18.1-17.8,20.3-35C231.7-590.9,230.3-597.2,222.9-600.8z"/>
</g>
<g>
	<rect x="734.8" y="-623.6" class="st28" width="73.6" height="44.6"/>
	<rect x="701.2" y="-683.8" class="st17" width="44.2" height="27.4"/>
	<rect x="664.1" y="-642.6" class="st17" width="54.5" height="33.6"/>
	<g>
		<path class="st16" d="M664.1-641.2c4.8,2.6,9.4,5.5,13.9,8.2c4.6,2.7,9.3,5.7,13.7,8.7h-1c4.6-3.1,9.1-6.3,13.7-9.3l7-4.6
			c2.4-1.5,4.6-2.9,7-4.5c-2.2,1.7-4.5,3.4-6.5,5.1l-6.7,5c-4.5,3.3-8.9,6.5-13.5,9.6l-0.5,0.3l-0.5-0.3c-4.5-2.9-9.1-6-13.5-9.1
			C672.9-634.9,668.4-638,664.1-641.2z"/>
	</g>
	<g>
		<path class="st16" d="M701.2-683.8c3.9,2.2,7.7,4.6,11.5,7s7.5,5,11.1,7.5h-1c3.8-2.6,7.4-5.1,11.1-7.5l5.7-3.6
			c1.9-1.2,3.8-2.4,5.8-3.4c-1.7,1.4-3.6,2.7-5.3,4.1l-5.3,3.9c-3.6,2.7-7.2,5.3-11,7.9l-0.5,0.3l-0.5-0.3c-3.6-2.6-7.4-5.1-11-7.9
			C708.2-678.3,704.6-681,701.2-683.8z"/>
	</g>
	<g>
		<path class="st44" d="M734.8-623.6c6.5,3.8,12.9,7.9,19.2,12.2c6.3,4.1,12.5,8.6,18.7,12.9h-2.1c6.2-4.3,12.3-8.7,18.7-12.9
			c6.3-4.1,12.7-8.2,19.2-12c-5.7,5-11.7,9.6-17.7,14.2c-6,4.6-12,9.1-18.2,13.5l-1,0.7l-1-0.7c-6.2-4.5-12.2-8.9-18.2-13.5
			C746.4-614,740.4-618.6,734.8-623.6z"/>
	</g>
</g>
<g>
	<circle class="st11" cx="50.9" cy="-612.6" r="50.9"/>
	<path class="st52" d="M65.1-616.9c-2.3-14.2-3.2-13.6-14.2-13.6s-11.9-0.6-14.2,13.6c-3-3.2-7.8-3.2-7.8,4.3s4.5,7.3,5.8,5.6
		c1.1,7.3,7.3,15.7,16.2,15.7S66-599.7,67.1-607c1.3,1.7,5.8,1.9,5.8-5.6S68-620.1,65.1-616.9z"/>
	<path class="st53" d="M50.9-604.6h-6c0,0,1.1,5.6,6,5.6s6-5.6,6-5.6H50.9z"/>
	<path class="st54" d="M50.9-561.7c11.2,0,21.4-3.5,29.8-9.7c-0.2-0.2-13.4-9.3-29.8-9.3c-16.6,0-29.6,9.1-29.8,9.3
		C29.5-565.3,39.9-561.7,50.9-561.7z"/>
	<path class="st54" d="M31.9-618.8c1.7-0.6,3.5,0.2,5,1.9c2.2-14.2,3.2-13.6,14.2-13.6s11.9-0.6,14.2,13.6c1.3-1.5,3.2-2.2,4.7-1.9
		c1.1-3.2,2.6-24,2.6-24s-3.9-5.8-20.5-5.8C25.7-648.8,31.9-618.8,31.9-618.8L31.9-618.8z"/>
	<path class="st55" d="M50.9-591.2c-3.2,0-6-1.1-8.2-2.6v14c2.6-0.4,5.4-0.7,8.2-0.7s5.6,0.4,8.2,0.7v-14
		C56.9-592.3,54.1-591.2,50.9-591.2z"/>
	<path class="st56" d="M106.1-647.9v-16.4v-31.1c0-2.2,1.7-3.9,3.9-3.9h51.5c2.2,0,3.9,1.7,3.9,3.9v31.1c0,2.2-1.7,3.9-3.9,3.9
		h-45.7L106.1-647.9z"/>
	<ellipse class="st18" cx="135.7" cy="-673.6" rx="2.6" ry="3.4"/>
	<ellipse class="st18" cx="123.2" cy="-673.6" rx="2.6" ry="3.4"/>
	<ellipse class="st18" cx="148.2" cy="-673.6" rx="2.6" ry="3.4"/>
</g>
<g>
	<circle class="st17" cx="57.4" cy="-449.7" r="7"/>
	<circle class="st57" cx="57.4" cy="-449.7" r="19.1"/>
	
		<ellipse transform="matrix(0.9985 -5.530039e-02 5.530039e-02 0.9985 24.9564 2.4861)" class="st57" cx="57.4" cy="-449.7" rx="28.2" ry="28.2"/>
	
		<ellipse transform="matrix(0.9985 -5.530039e-02 5.530039e-02 0.9985 24.9564 2.4861)" class="st57" cx="57.4" cy="-449.7" rx="37.7" ry="37.7"/>
	<line class="st58" x1="122.1" y1="-463.3" x2="57.4" y2="-449.7"/>
	<polyline class="st58" points="64.5,-445 57.4,-449.7 62.1,-456.8 	"/>
	<polyline class="st58" points="115.8,-456.2 108.5,-460.7 113.2,-468 	"/>
	<polyline class="st58" points="120,-457.1 112.9,-461.8 117.6,-468.9 	"/>
	<polyline class="st58" points="124.8,-457.7 117.7,-462.4 122.4,-469.5 	"/>
</g>
<g>
	<path class="st59" d="M835-675.7c0-7.2-5.9-13.3-13.3-13.3c-7.2,0-13.3,5.9-13.3,13.3c0,3.1,1.1,5.9,2.8,8l0,0
		c3.9,6,4.3,12.3,4.3,12.3h6.2h6.2c0,0,0.5-6.5,4.3-12.3l0,0C833.9-670,835-672.7,835-675.7z"/>
	<polygon class="st60" points="815.6,-655.3 815.6,-648.4 820.3,-643.9 823.1,-643.9 827.9,-648.4 827.9,-655.3 	"/>
	<path class="st61" d="M818.6-655.3c0,0,0.3-12.5-3.9-19.7"/>
	<path class="st61" d="M828.7-674.9c-4.2,7.2-3.9,19.7-3.9,19.7"/>
	<path class="st61" d="M815.1-674.3c0,0,0.9-1.5,2.2-1.5c1.4,0,1.2,3.5,2.8,3.5c1.5,0,1.2-2.6,2.6-2.6c1.4,0,0.8,1.9,1.9,1.9
		c1.1,0,1.2-4.2,4-1.7"/>
	<line class="st61" x1="804.1" y1="-690.8" x2="808.5" y2="-685.9"/>
	<line class="st61" x1="798.6" y1="-681.8" x2="804.8" y2="-680.1"/>
	<line class="st61" x1="798.9" y1="-670.1" x2="804.9" y2="-672.9"/>
	<line class="st61" x1="840.1" y1="-690.8" x2="835.8" y2="-685.9"/>
	<line class="st61" x1="845.8" y1="-681.8" x2="839.6" y2="-680.1"/>
	<line class="st61" x1="845.3" y1="-670.1" x2="839.5" y2="-672.9"/>
</g>
<image style="overflow:visible;enable-background:new    ;" width="757" height="460" xlink:href="F5EA74E3.jpg"  transform="matrix(0.9984 0 0 0.9984 1642.7694 -492.1727)">
</image>
<g>
	<path class="st62" d="M293.4,141.2H83.8V14.5c0-3.6,2.9-6.5,6.5-6.5h196.6c3.6,0,6.5,2.9,6.5,6.5L293.4,141.2L293.4,141.2z"/>
	<path class="st7" d="M293.4,19.1H83.8v-4.6c0-3.6,2.9-6.5,6.5-6.5h196.6c3.6,0,6.5,2.9,6.5,6.5L293.4,19.1L293.4,19.1z"/>
	<circle class="st63" cx="96.3" cy="13.5" r="2.4"/>
	<circle class="st63" cx="106.4" cy="13.5" r="2.4"/>
	<circle class="st63" cx="116.5" cy="13.5" r="2.4"/>
	<rect x="93.8" y="28" class="st64" width="46.8" height="3.9"/>
	<rect x="93.8" y="38.9" class="st64" width="71.5" height="2.9"/>
	<rect x="93.8" y="43.9" class="st64" width="20.2" height="2.6"/>
	<rect x="153.9" y="43.9" class="st64" width="11.5" height="2.6"/>
	<rect x="116.5" y="43.9" class="st64" width="35" height="2.6"/>
	<rect x="93.8" y="48.7" class="st64" width="44.1" height="2.6"/>
	<rect x="93.8" y="69.1" class="st64" width="44.1" height="19.2"/>
	<rect x="143.3" y="69.1" class="st64" width="44.1" height="19.2"/>
	<rect x="191" y="69.1" class="st64" width="44.1" height="19.2"/>
	<rect x="239.3" y="69.1" class="st64" width="44.1" height="19.2"/>
	<rect x="93.8" y="90.7" class="st64" width="44.1" height="19.2"/>
	<rect x="143.3" y="90.7" class="st64" width="44.1" height="19.2"/>
	<rect x="191" y="90.7" class="st64" width="44.1" height="19.2"/>
	<rect x="239.3" y="90.7" class="st64" width="44.1" height="19.2"/>
	<rect x="93.8" y="113.9" class="st64" width="44.1" height="19.2"/>
	<rect x="143.3" y="113.9" class="st64" width="44.1" height="19.2"/>
	<rect x="191" y="113.9" class="st64" width="44.1" height="19.2"/>
	<rect x="239.3" y="113.9" class="st64" width="44.1" height="19.2"/>
</g>
<path class="st62" d="M896.3,36.3C895.2,16.1,878.5,0,858.1,0c-18,0-33.1,12.5-37.2,29.2c-3.3-1.5-7.1-2.4-11-2.4
	c-14.5,0-26.3,11.8-26.3,26.3c0,1.6,0.2,3.2,0.4,4.7c-0.1,0-0.3,0-0.4,0c-8.6,0-15.5,6.9-15.5,15.5s6.9,15.5,15.5,15.5h110.7
	c14.5,0,26.3-11.8,26.3-26.3C920.6,48.6,909.9,37.3,896.3,36.3z"/>
<g>
	<rect x="442.8" y="258.7" class="st65" width="65" height="42.7"/>
	<path class="st66" d="M545.1,312H405.5v-3c0-4.2,3.4-7.5,7.5-7.5h124.5c4.2,0,7.5,3.4,7.5,7.5L545.1,312L545.1,312z"/>
	<rect x="442.8" y="258.7" class="st66" width="65" height="20.3"/>
	<path class="st65" d="M681.9,269.5H268.7c-7.9,0-14.3-6.4-14.3-14.3V14.4c0-7.9,6.4-14.3,14.3-14.3H682c7.9,0,14.3,6.4,14.3,14.3
		v240.8C696.3,263.1,689.8,269.5,681.9,269.5z"/>
	<g>
		<g>
			<defs>
				<path id="SVGID_3_" d="M691.8,240.6h-433V18.2c0-6.7,5.5-12.2,12.2-12.2h408.7c6.7,0,12.2,5.5,12.2,12.2v222.4H691.8z"/>
			</defs>
			<clipPath id="SVGID_4_">
				<use xlink:href="#SVGID_3_"  style="overflow:visible;"/>
			</clipPath>
			<g class="st67">
				<rect x="258.8" y="6.1" class="st62" width="433" height="234.4"/>
				<rect x="258.8" y="224.1" class="st7" width="433" height="16.4"/>
				<rect x="258.8" y="6" class="st7" width="433" height="24.9"/>
				<rect x="278.6" y="56.6" class="st9" width="12.3" height="4.2"/>
				<rect x="278.6" y="81.6" class="st68" width="13.9" height="4.2"/>
				<rect x="298.5" y="81.6" class="st3" width="39.1" height="4.2"/>
				<rect x="289.4" y="94.2" class="st3" width="21.3" height="4.2"/>
				<rect x="374.6" y="94.2" class="st3" width="21.3" height="4.2"/>
				<rect x="400.4" y="94.2" class="st7" width="21.3" height="4.2"/>
				<rect x="318.1" y="94.2" class="st3" width="48.9" height="4.2"/>
				<rect x="298.5" y="106.6" class="st7" width="28.4" height="4.2"/>
				<rect x="334.9" y="106.6" class="st3" width="61.1" height="4.2"/>
				<rect x="311" y="131.5" class="st68" width="17.8" height="4.2"/>
				<rect x="311" y="144.1" class="st9" width="17.8" height="4.2"/>
				<rect x="336.4" y="131.5" class="st3" width="54.4" height="4.2"/>
				<rect x="336.4" y="144.1" class="st3" width="75.5" height="4.2"/>
				<rect x="323.5" y="156.6" class="st7" width="18" height="4.2"/>
				<rect x="336.4" y="169.1" class="st3" width="120.8" height="4.2"/>
				<rect x="336.4" y="181.7" class="st3" width="39.9" height="4.2"/>
				<rect x="383.7" y="181.7" class="st7" width="17.9" height="4.2"/>
				<rect x="407.7" y="181.7" class="st3" width="17.9" height="4.2"/>
				<circle class="st69" cx="274.9" cy="18.3" r="4.7"/>
				<circle class="st68" cx="290.9" cy="18.3" r="4.7"/>
				<circle class="st70" cx="307" cy="18.3" r="4.7"/>
			</g>
		</g>
	</g>
</g>
<g>
	<g>
		<rect x="569.2" y="219.2" class="st71" width="152.1" height="64.8"/>
		<g>
			<line class="st72" x1="696.7" y1="229.5" x2="709.3" y2="229.5"/>
		</g>
		<g>
			<line class="st72" x1="655.2" y1="229.5" x2="690" y2="229.5"/>
		</g>
		<g>
			<line class="st72" x1="636" y1="229.5" x2="649" y2="229.5"/>
		</g>
		<g>
			<line class="st72" x1="579.6" y1="229.5" x2="629.3" y2="229.5"/>
		</g>
		<g>
			<line class="st72" x1="597.6" y1="234.7" x2="687.6" y2="234.7"/>
		</g>
		<g>
			<line class="st72" x1="664" y1="239.6" x2="709.3" y2="239.6"/>
		</g>
		<g>
			<line class="st72" x1="647.7" y1="239.6" x2="659.6" y2="239.6"/>
		</g>
		<g>
			<line class="st72" x1="617.7" y1="239.6" x2="642" y2="239.6"/>
		</g>
		<g>
			<line class="st72" x1="642.6" y1="244.8" x2="579.6" y2="244.8"/>
		</g>
		<g>
			<line class="st72" x1="690" y1="244.8" x2="677.2" y2="244.8"/>
		</g>
		<g>
			<line class="st72" x1="659.1" y1="251.6" x2="683.1" y2="251.6"/>
		</g>
		<g>
			<line class="st72" x1="590.9" y1="251.6" x2="654.2" y2="251.6"/>
		</g>
		<g>
			<line class="st72" x1="675.4" y1="257.7" x2="709.3" y2="257.7"/>
		</g>
		<g>
			<line class="st72" x1="659.1" y1="257.7" x2="671.2" y2="257.7"/>
		</g>
		<g>
			<line class="st72" x1="630.1" y1="257.7" x2="654.2" y2="257.7"/>
		</g>
		<g>
			<line class="st72" x1="579.6" y1="257.7" x2="625.1" y2="257.7"/>
		</g>
		<g>
			<line class="st72" x1="647.7" y1="263.8" x2="664.6" y2="263.8"/>
		</g>
		<g>
			<line class="st72" x1="609.2" y1="263.8" x2="642" y2="263.8"/>
		</g>
		<g>
			<line class="st72" x1="579.6" y1="263.8" x2="604" y2="263.8"/>
		</g>
	</g>
</g>
<g>
	<path class="st3" d="M621.6,68c-0.6-2.5-1.6-4.8-2.9-6.9l2.3-2.6l-8.9-8.9l-2.6,2.3c-2.1-1.3-4.5-2.2-6.9-2.9l-0.3-3.5h-12.6
		l-0.3,3.5c-2.5,0.6-4.8,1.6-6.9,2.9l-2.6-2.3l-8.9,8.9l2.3,2.6c-1.3,2.1-2.2,4.5-2.9,6.9l-3.5,0.3v12.6l3.5,0.3
		c0.6,2.5,1.6,4.8,2.9,6.9l-2.3,2.6l8.9,8.9l2.6-2.3c2.1,1.3,4.5,2.2,6.9,2.9l0.3,3.5h12.6l0.3-3.5c2.5-0.6,4.8-1.6,6.9-2.9l2.6,2.3
		l8.9-8.9l-2.3-2.6c1.3-2.1,2.2-4.5,2.9-6.9l3.5-0.3V68.3L621.6,68z M596,85.4c-6,0-10.9-4.9-10.9-10.9S590,63.6,596,63.6
		s10.9,4.9,10.9,10.9C606.9,80.6,602,85.4,596,85.4z"/>
	<path class="st3" d="M577.4,119.4c-1-3.9-2.5-7.5-4.5-10.9l3.6-4.1l-13.9-13.9l-4.1,3.6c-3.3-2-7-3.5-10.9-4.5l-0.4-5.4h-19.7
		l-0.4,5.4c-3.9,1-7.5,2.5-10.9,4.5l-4.1-3.6L498,104.4l3.6,4.1c-2,3.3-3.5,7-4.5,10.9l-5.4,0.4v19.7l5.4,0.4
		c1,3.9,2.5,7.5,4.5,10.9l-3.6,4.1l13.9,13.9l4.1-3.6c3.3,2,7,3.5,10.9,4.5l0.4,5.4H547l0.4-5.4c3.9-1,7.5-2.5,10.9-4.5l4.1,3.6
		l13.9-13.9l-3.6-4.1c2-3.3,3.5-7,4.5-10.9l5.4-0.4v-19.7L577.4,119.4z M537.2,146.7c-9.4,0-17.1-7.7-17.1-17.1s7.7-17.1,17.1-17.1
		c9.4,0,17.1,7.7,17.1,17.1C554.3,139.1,546.7,146.7,537.2,146.7z"/>
</g>
<g>
	<rect x="619.6" y="69.4" class="st73" width="205.3" height="73.2"/>
	<rect x="631.9" y="79.1" class="st62" width="32" height="3.7"/>
	<rect x="675.2" y="79.1" class="st62" width="12.4" height="3.7"/>
	<rect x="692.9" y="79.1" class="st62" width="16.3" height="3.7"/>
	<rect x="712.3" y="79.1" class="st62" width="40.2" height="3.7"/>
	<rect x="757.9" y="79.1" class="st62" width="17" height="3.7"/>
	<rect x="631.9" y="86.3" class="st62" width="16" height="3.7"/>
	<rect x="652" y="86.3" class="st62" width="18.9" height="3.7"/>
	<rect x="682.7" y="86.3" class="st62" width="59.2" height="3.7"/>
	<rect x="745.4" y="86.3" class="st62" width="29.6" height="3.7"/>
	<rect x="631.9" y="93.5" class="st62" width="40.1" height="3.7"/>
	<rect x="678.3" y="93.5" class="st62" width="23.1" height="3.7"/>
	<rect x="705.6" y="93.5" class="st62" width="15" height="3.7"/>
	<rect x="723.9" y="93.5" class="st62" width="51.1" height="3.7"/>
	<rect x="631.9" y="100.1" class="st62" width="53.5" height="3.7"/>
	<rect x="689.9" y="100.1" class="st62" width="11.5" height="3.7"/>
	<rect x="737.2" y="100.1" class="st62" width="15.9" height="3.7"/>
</g>
<g>
	<path class="st71" d="M917.9,294.9c0,0-0.7,14.7,6.6,16.4c7.2,1.7,7.6-8.3-0.5-19.2L917.9,294.9z"/>
	<path class="st74" d="M826.8,105.2c0,0-0.2-4.5,0.4-6.1c0.6-1.7-0.5-2.1-1.5,0s-2.3,0.6-2.3-1.4s-1.5-4.9-4-3.9s-3.8,9,0.6,14
		C824.3,112.7,826.8,105.2,826.8,105.2z"/>
	<path class="st75" d="M918.3,211.2c0,0,5.2,8.1,9.4,4.5c4.3-3.6-4.3-9.4-4.3-9.4l-3.8,1.6L918.3,211.2z"/>
	<path class="st76" d="M917.5,292.1c0,0,0.4,5.1,1.6,4.7c1.2-0.4,0.6-2.8,1.8-3.2c1.2-0.4,2.2,2.2,3.3,1.7s-0.5-4.5-1.4-5.7
		C921.9,288.4,917.5,292.1,917.5,292.1z"/>
	<path class="st77" d="M864.3,302.6l0.2-3.1l-6.8-1.4l-0.8,2.9l-0.6,5.6c0,0,3.3,1.2,3.4,1.3c0.2,0,3.3-1.1,3.3-1.1l1-1.5
		L864.3,302.6z"/>
	<path class="st71" d="M856.9,301c0,0,0,4.9,2.8,4.9c2.7,0,4-1.6,4.6-3.4c2.3,4.1,0.3,9.3,0.3,9.3s-21.1,0-23.4,0s-3.2-2.9,0.6-2.9
		C845.6,309,852.5,306,856.9,301z"/>
	<path class="st78" d="M854,212c0,0-0.4,30.5,0,41.7s1.8,41.7,2.3,44.1s11.6,4.2,12.3,1.1s2.9-35,2-39.6c2-8.3,7.5-27.6,7.5-29.2
		s-1.5-4-2.1-5.7c-0.7-1.7-9.1-18.2-9.1-18.2L854,212z"/>
	<path class="st79" d="M865.3,213.9c0,0,4.8,13.8,19.4,34.9c14.6,21.1,27.6,38.9,29.7,42.1c2.2,3.2,11.2-1,9.7-5.6
		s-14-28.3-16.7-32.4s-15.8-42.7-17.4-45.1S865.3,213.9,865.3,213.9z"/>
	<path class="st71" d="M853.8,142.9l5,2.7l14.4,4c0,0,9,3,10.9,6.6s0.8,4.7,0.8,4.7s3,23.6,3.7,32.9c0.7,9.4,1.5,14.1,1.5,14.1
		s-15.1,12.6-37.6,5.5c-3-26.5-10.5-51.4-11.5-53.2c-0.9-1.8,1.8-12.9,1.8-12.9L853.8,142.9z"/>
	<path class="st80" d="M864.1,123.3c0,0-5.5,8.4-5,13.8c0.5,5.4,1.8,4.7,12,3c3.3-1.2,4.5-4.3,4.7-4.4c0.1-0.1-1.1-8.5-1.2-8.8
		C874.5,126.6,864.1,123.3,864.1,123.3z"/>
	<path class="st81" d="M863,140.3c0,0.4,0.3,5-4.3,5.3c0.5,5.8,4.2,6.5,6.5,6.6s6.6-0.6,7.9-2.7c-3.5-2.8-1.7-8.5-1.7-8.5l-1-2.4
		L863,140.3z"/>
	<path class="st7" d="M864.8,119c-4,3.3-1.2,5.3,0.7,6.6c2,1.3,4.7,4,2.9,5.9s0.9,1.7,2.1,0.5c1.2-1.1,4.2,2.2,0.8,3.7
		c-3.3,1.5-2.2,3.6-0.1,6.7c6.3-4.2,10.3-10,10.1-15.3C881.1,121.9,870.7,114.1,864.8,119z"/>
	<path class="st82" d="M883.7,156c2.4,0.1,37.8,43,39.6,46.1s-0.2,5-2.4,6.9c-2.2,2-4.7,4.9-8.6,0.7c-3.9-4.2-31.7-28.8-33.6-38.5
		C876.7,161.6,879.3,155.9,883.7,156z"/>
	<path class="st82" d="M853.8,142.9c0,0-0.1,7.4-12.9,17.2c-10.9-21.6-21.2-47.8-21.1-51.4c0.1-3.6,6.6-5.1,8.3-2.5
		C829.8,108.8,841.4,136.4,853.8,142.9z"/>
</g>
<g>
	<path class="st81" d="M716,150.9c0,0-3.5-4.9-6.4-2.2s3.6,5.8,3.6,5.8l2.6-0.3L716,150.9z"/>
	<path class="st83" d="M805.6,291.3l0.2,3.5c0,0,1.7,3.7,1.9,3.8c0.1,0.1,5.9,0.2,5.9,0.2l-0.2-2.7c0,0-0.5-6-1.1-6.9
		C811.7,288.2,805.6,291.3,805.6,291.3z"/>
	<path class="st84" d="M753.6,300.8c0,0,0.8-5.7,0.8-6.2c0-0.6-7-1.2-7-1.2l-0.9,3.5l-0.8,6.1c0,0,3.8,0.8,3.9,1
		c0.1,0.2,3.7-0.4,3.7-0.4L753.6,300.8z"/>
	<path class="st71" d="M801.9,288.2l9.8-3.7c0,0,2.1,2,1.8,3.9c-0.3,2-3,3-5.8,3.6s-4.2,0.9-4.9,0
		C802.2,291.1,801.5,288.9,801.9,288.2z"/>
	<path class="st71" d="M746.8,289.6l10.1,1.5c0,0,0.5,2.5-0.2,3.7c-0.7,1.1-3.4,1.1-5.4,0.8c-2-0.3-5.3-0.7-5.4-2.6
		C745.8,291,746.8,289.6,746.8,289.6z"/>
	<path class="st85" d="M754.8,208.2c0,0-5.7,32.5-6.2,37.7s-1.8,43.7-1.8,43.7s3,2.9,10.1,1.5c5.5-13.2,6.7-29.9,6.9-34.9
		c0.8-4.3,12.3-25.4,12.3-25.4l-10.6-24L754.8,208.2z"/>
	<path class="st73" d="M762.5,209.3c0,0,19.1,40.1,22.5,45.4c3.4,5.3,16.9,33.6,16.9,33.6s6.2,0.2,9.8-3.7
		c-2.9-18.4-9.4-30.9-11.4-35c-2.1-4.1-4.5-33.7-6-36.8C792.9,209.5,762.5,209.3,762.5,209.3z"/>
	<path class="st71" d="M768.4,145.3c0,0-3.9-2.3-13.6,3.6c-9.6,5.9-25.6,8.6-38.3,1.7c-2.4,1.2-3.5,4.5-3.5,4.5s11.4,15.3,26.9,15
		s20.3-3.4,20.3-3.4L768.4,145.3z"/>
	<path class="st7" d="M774.8,146.3c0,0-5.6-1.1-6.5-1s-9.5,6-10.1,29.4s-3.4,33.5-3.4,33.5s19,9.8,40.3,5.6
		c3.8-24,12.7-50.5,12.7-50.5l-2.1-8.6c0,0-6-4.4-12.1-5.4S774.8,146.3,774.8,146.3z"/>
	<path class="st75" d="M774.8,146.3c0,0,7-1.6,10.1-15c1.1-4.5,5.1-4.5,2.9,0c-2.2,4.5,0.6,2.1,1.2,3.1c0.7,1-1.8,10.7,4.5,14.8
		C786.1,154.3,779.6,153.9,774.8,146.3z"/>
	<path class="st86" d="M779,123.4c0,0-2.9,6.2-3.2,8.3c-0.3,2,0.3,3.9,0.3,3.9l3.3,0.9c0,0,2.8-2,3-2.2s3.5-7,3.5-7L783,123
		L779,123.4z"/>
	<path class="st65" d="M782.6,126c0,0,3.1,1.2,0,6s-5,3-6.8-0.3c-3.3,2.7-3.8,13.1,6,9.7c9.8-3.4,11.4-4.9,14.4-12.9
		s-10.4-14.2-13.1-15.6c-2.7-1.3-4.7,0.4-6.6,3.1C774.4,118.6,772.5,124.3,782.6,126z"/>
	<path class="st71" d="M746.4,296.8c0,0,0,7.7,7.1,4c2.6,4.4,0,7.7,0,7.7s-22.8-0.9-24.6-1.2c-1.8-0.4-2.1-2.9,1.6-3.2
		C734.4,303.7,742.2,301,746.4,296.8z"/>
	<path class="st71" d="M805.8,294.8c0-0.1,3.4,5.1,7.6,1.2c4.9,1.8,3.8,6.1,3.8,6.1s-16.9,8.1-19.9,9.4s-5.5-0.3-2.6-2.6
		C797.6,306.6,802.7,302.5,805.8,294.8z"/>
	<rect x="711.2" y="137" transform="matrix(0.7405 -0.672 0.672 0.7405 89.6886 516.2301)" class="st87" width="4.4" height="10"/>
	
		<rect x="735.6" y="136.1" transform="matrix(0.7405 -0.672 0.672 0.7405 76.7537 541.8503)" class="st87" width="9" height="70.8"/>
	<path class="st88" d="M689.1,79.1c-19.1,0-34.5,15.5-34.5,34.5s15.5,34.5,34.5,34.5c19.1,0,34.5-15.5,34.5-34.5
		S708.2,79.1,689.1,79.1z M689.1,141.3c-15.3,0-27.7-12.4-27.7-27.7s12.4-27.7,27.7-27.7s27.7,12.4,27.7,27.7
		S704.4,141.3,689.1,141.3z"/>
	<path class="st71" d="M751.4,177.3l-1.4,8.1c0,0,17.6,7.5,30.7,5.2c13-2.3,29.2-19.3,29.2-28.3s-8.7-8.9-9.7-8.6
		c-1.1,0.3-10,1.7-23.6,23.5C767.1,176.6,751.4,177.3,751.4,177.3z"/>
	<path class="st89" d="M751.4,177.7c0,0-5.1-2.3-6.5,1.4c-1.3,3.7,5.4,4.9,5.4,4.9L751.4,177.7z"/>
</g>
<g>
	<path class="st75" d="M96.2,101.1c0,0,2.1,13.3-3.4,16.4s-13-6.3-13-6.3l-0.9-10.6L96.2,101.1z"/>
	<path class="st81" d="M87.7,115.7c0,0-1.2,5.2,1.1,7.8c2.3,2.6-2.4,4.3-6.2,1c-3.8-3.2-5.8-5.9-5.8-5.9l1.5-4.9l4.5-2.1L87.7,115.7
		z"/>
	<path class="st65" d="M100.1,98.9c0,5.1-8.2,3.1-9.9,3.1s-3.7,3-3.6,5.6s-2,2-1.7-0.7s-5.1-2.7-3.5,1.7s-2.2,8.3-3.2,7.8
		s-4.6-3.8-4.6-13.2S79.9,90,87.4,90S100.1,90.5,100.1,98.9z"/>
	<path class="st71" d="M40.1,284.9c0,0-14,23.8-4.3,26.7c9.7,3,13.3-23.9,13.3-23.9L40.1,284.9z"/>
	<path class="st75" d="M42.3,280.3c-0.2,0.3-5.7,10.9-3.3,12.5c2.4,1.5,2.3-2.5,4-1.7s0.3,4.2,2.5,4.2c2.1-0.1,4.4-9.3,4.4-11.5
		S42.3,280.3,42.3,280.3z"/>
	<path class="st90" d="M91.5,287.2l0.2,4.2c0,0,1.5,6.4,1.6,6.5s7.1,0.2,7.1,0.2s1.3-3.3,1.6-3.5c0.3-0.3,0.4-1.6,0.4-1.6l-3.2-5.8
		L91.5,287.2L91.5,287.2z"/>
	<path class="st71" d="M91.7,291.4c0,0,2.2,4.6,5.7,4.6s6.2-4.8,6.2-4.8s5.4,6,7.9,6.5s7.5-0.8,10.9,6c-7.5,0-30.8,0-30.8,0
		S90.3,297.5,91.7,291.4z"/>
	<path class="st71" d="M78,211.7c0,1,4.4,17.6,8,24.6s0.3,23,2.9,51.3c5.5,2.6,14.1,0,14.1,0s0-30,0-33.5s3.4-29.3,2.9-52.2
		s-8.5-18.6-8.5-18.6l-15.3,12.4L78,211.7z"/>
	<path class="st7" d="M91.1,189.3c0,0-18.8,41.1-22.4,49.1c-3.6,8-9.6,35.5-16.9,46.6c-6,0.7-8.7-1.7-11.7-3.9
		c2.2-12.8,7.7-36.7,9.6-42.3c1.9-5.5,5.7-46.3,5.7-46.3l17.5-5L91.1,189.3z"/>
	<path class="st91" d="M74.7,122.8l2.2-4.2l12.4,5.6c0,0,13.4,5.7,12.8,39.8c0,23.7,0,25.6,0,25.6s-5.9,4.7-26,0
		C72.7,173.4,74.7,122.8,74.7,122.8z"/>
	<path class="st92" d="M92.1,124.3c0,0,8,1.4,19.7,16.8s43.2,8.3,43.2,8.3l-41.8,15.1L92.1,124.3z"/>
	<path class="st62" d="M88.2,122.4c0,0,17.7,5.7,21.9,31.6c-3.2,3.2-11.4,1.7-11.5,1.1S88.2,122.4,88.2,122.4z"/>
	<path class="st62" d="M63.8,120.6c0,0,0-2.6,13.1-2c7.4,15.6,15.4,47.5-2.3,80.7c-10.9,0-24.9-5.5-24.9-5.5s0.7-53.8,4.2-61.3
		c3.6-7.5,4.9-8.3,5-8.5C59.1,123.9,63.8,120.6,63.8,120.6z"/>
	<path class="st8" d="M97,208.3l95.7-19.9c2.2-0.5,3.6-2.7,3.1-4.9l-10.9-42.3c-0.5-2.1-2.6-3.4-4.7-2.9l-95.7,19.9
		c-2.2,0.5-3.6,2.7-3.1,4.9l10.9,42.3C92.8,207.4,94.9,208.7,97,208.3z"/>
	<path class="st92" d="M67.8,120c5,1.7-3.9,14.4,9.1,21.7s22.9,9.3,34.9,9.8c0,4.1,0,9.6,0,9.6s-29.5,5.9-47.5-4.2
		C46.2,147,53.5,114.9,67.8,120z"/>
	<path class="st75" d="M111.8,152.6c0,0,7-1.4,9.1,0.3s-0.2,7-9.1,6.8C111.3,156.7,111.8,152.6,111.8,152.6z"/>
</g>
<image style="overflow:visible;enable-background:new    ;" width="300" height="261" xlink:href="F5EA74E1.jpg"  transform="matrix(0.9965 0 0 0.9965 1207.5123 -854.9971)">
</image>
<g>
	<path class="st73" d="M273.2,209.4H165.7c-4.1,0-7.5,3.3-7.5,7.5v48.6c0,4.1,3.3,7.5,7.5,7.5h107.5c4.1,0,7.5-3.3,7.5-7.5v-48.6
		C280.7,212.7,277.3,209.4,273.2,209.4z M197.9,252c1.3,1,1.6,2.9,0.6,4.2c-0.6,0.8-1.5,1.2-2.4,1.2c-0.6,0-1.3-0.2-1.8-0.6
		l-18-13.4c-0.8-0.6-1.2-1.5-1.2-2.4c0-1,0.5-1.9,1.2-2.4l18-13.4c1.3-1,3.2-0.7,4.2,0.6s0.7,3.2-0.6,4.2l-14.7,10.9L197.9,252z
		 M231.3,222.7l-20.6,39.6c-0.5,1-1.6,1.6-2.7,1.6c-0.5,0-0.9-0.1-1.4-0.3c-1.5-0.8-2.1-2.6-1.3-4.1l20.6-39.6
		c0.8-1.5,2.6-2.1,4.1-1.3C231.5,219.4,232.1,221.2,231.3,222.7z M259.4,243.5l-18,13.4c-0.5,0.4-1.2,0.6-1.8,0.6
		c-0.9,0-1.8-0.4-2.4-1.2c-1-1.3-0.7-3.2,0.6-4.2l14.7-10.9l-14.7-10.9c-1.3-1-1.6-2.9-0.6-4.2s2.9-1.6,4.2-0.6l18,13.4
		c0.8,0.6,1.2,1.5,1.2,2.4C260.6,242.1,260.2,243,259.4,243.5z"/>
	<g>
		<path class="st3" d="M198.6,225.9c-1-1.3-2.9-1.6-4.2-0.6l-18,13.4c-0.8,0.6-1.2,1.5-1.2,2.4c0,1,0.5,1.9,1.2,2.4l18,13.4
			c0.5,0.4,1.2,0.6,1.8,0.6c0.9,0,1.8-0.4,2.4-1.2c1-1.3,0.7-3.2-0.6-4.2l-14.7-10.9l14.7-10.9C199.3,229.2,199.6,227.3,198.6,225.9
			z"/>
		<path class="st3" d="M237.2,256.3c0.6,0.8,1.5,1.2,2.4,1.2c0.6,0,1.3-0.2,1.8-0.6l18-13.4c0.8-0.6,1.2-1.5,1.2-2.4
			c0-1-0.5-1.9-1.2-2.4l-18-13.4c-1.3-1-3.2-0.7-4.2,0.6s-0.7,3.2,0.6,4.2l14.7,10.9l-14.7,11C236.5,253,236.2,254.9,237.2,256.3z"
			/>
		<path class="st3" d="M208.1,263.9c1.1,0,2.2-0.6,2.7-1.6l20.6-39.6c0.8-1.5,0.2-3.3-1.3-4.1s-3.3-0.2-4.1,1.3l-20.6,39.6
			c-0.8,1.5-0.2,3.3,1.3,4.1C207.1,263.8,207.6,263.9,208.1,263.9z"/>
	</g>
</g>
<g>
	<path class="st7" d="M354.9,256.1l-95.3-0.3c-4.1,0-7.5,3.3-7.5,7.4l-0.1,41.2c0,4.1,3.3,7.5,7.4,7.5l95.3,0.3
		c4.1,0,7.5-3.3,7.5-7.4l0.1-41.2C362.3,259.4,359,256.1,354.9,256.1z M287.3,298.3v-13.5c5.4,0,10.8,0.1,16.1,0.1
		c0,5.2,0,10.4,0,15.6C298.1,299.7,292.7,299,287.3,298.3z M287.4,283.2v-13.4c5.4-0.8,10.8-1.5,16.2-2.2c0,5.2,0,10.4,0,15.6
		C298.1,283.2,292.8,283.2,287.4,283.2z M326.8,303.9c-7.1-1.1-14.3-2.1-21.4-3.1c0-5.2,0-10.5,0-15.7c7.2,0,14.3,0,21.5,0.1
		C326.9,291.4,326.9,297.6,326.8,303.9z M305.5,283.1c0-5.3,0-10.6,0-15.8c7.1-1.1,14.3-2.1,21.4-3c0,6.3,0,12.5,0,18.8
		C319.8,283,312.6,283.1,305.5,283.1z"/>
	<g>
		<path class="st3" d="M305.4,300.8c7.1,1,14.3,2,21.4,3.1c0-6.2,0-12.5,0.1-18.7c-7.1,0-14.3,0-21.5-0.1
			C305.4,290.3,305.4,295.6,305.4,300.8z"/>
		<path class="st3" d="M327,264.2c-7.1,1-14.3,2-21.4,3c0,5.3,0,10.5,0,15.8c7.1,0,14.3-0.1,21.4-0.1
			C326.9,276.8,326.9,270.5,327,264.2z"/>
		<path class="st3" d="M303.5,283.2c0-5.2,0-10.4,0-15.6c-5.4,0.7-10.8,1.4-16.2,2.2v13.4C292.8,283.2,298.1,283.2,303.5,283.2z"/>
		<path class="st3" d="M303.5,284.9c-5.4,0-10.8-0.1-16.1-0.1v13.5c5.4,0.7,10.8,1.5,16.1,2.3C303.5,295.3,303.5,290.1,303.5,284.9z
			"/>
	</g>
</g>
<g id="Layer_3">
	<polyline class="st93" points="218.6,604.3 185.3,604.3 185.3,708.4 40.9,708.4 40.9,527.8 174.1,527.8 174.1,491.8 291.4,491.8 
		291.4,516.3 448.8,516.3 448.8,498.4 607.6,498.4 607.6,564 717.3,564 717.3,665.9 632.8,665.9 	"/>
	<g>
		<rect x="463.8" y="462" class="st94" width="287.6" height="75.7"/>
		<rect x="519.5" y="480.5" class="st95" width="176.2" height="11.7"/>
		<rect x="500.5" y="502.7" class="st96" width="214.2" height="6.3"/>
		<rect x="500.5" y="512.9" class="st96" width="214.2" height="6.3"/>
		<polygon class="st96" points="479.7,507.5 470.1,499.8 479.7,492.2 		"/>
		<polygon class="st96" points="735.6,492.2 745.1,499.8 735.6,507.5 		"/>
	</g>
	<g>
		<rect x="252.2" y="485.3" class="st4" width="78.5" height="13.1"/>
		<rect x="317.5" y="485.3" class="st7" width="13.1" height="13.1"/>
		<circle class="st97" cx="323.4" cy="491.1" r="2.6"/>
		<line class="st97" x1="325.2" y1="492.9" x2="327.4" y2="495"/>
	</g>
	<g>
		<rect x="646.2" y="602.3" class="st62" width="136.3" height="151.2"/>
		<rect x="646.2" y="748.4" class="st7" width="136.3" height="7.6"/>
		<rect x="646.2" y="602.3" class="st7" width="136.3" height="11.5"/>
		<rect x="677.2" y="729.2" class="st3" width="9.1" height="1.9"/>
		<rect x="719.4" y="729.2" class="st68" width="9.1" height="1.9"/>
		<rect x="677.2" y="723.5" class="st3" width="38" height="1.9"/>
		<rect x="668.1" y="740.8" class="st87" width="4.9" height="1.9"/>
		<rect x="668.1" y="625.6" class="st87" width="5.7" height="1.9"/>
		<rect x="668.1" y="637.2" class="st68" width="6.5" height="1.9"/>
		<rect x="677.2" y="637.2" class="st3" width="18.2" height="1.9"/>
		<rect x="673.1" y="642.9" class="st3" width="9.9" height="1.9"/>
		<rect x="712.4" y="642.9" class="st3" width="9.9" height="1.9"/>
		<rect x="724.2" y="642.9" class="st88" width="9.9" height="1.9"/>
		<rect x="686.2" y="642.9" class="st3" width="22.6" height="1.9"/>
		<rect x="677.2" y="648.7" class="st88" width="13.1" height="1.9"/>
		<rect x="694.1" y="648.7" class="st3" width="28.1" height="1.9"/>
		<rect x="683" y="660.2" class="st68" width="8.1" height="1.9"/>
		<rect x="683" y="665.9" class="st87" width="8.1" height="1.9"/>
		<rect x="694.8" y="660.2" class="st3" width="25" height="1.9"/>
		<rect x="694.8" y="665.9" class="st3" width="34.8" height="1.9"/>
		<rect x="688.9" y="671.7" class="st88" width="8.3" height="1.9"/>
		<rect x="694.8" y="677.4" class="st3" width="55.8" height="1.9"/>
		<rect x="694.8" y="683.2" class="st3" width="18.4" height="1.9"/>
		<rect x="716.5" y="683.2" class="st88" width="8.2" height="1.9"/>
		<rect x="727.5" y="683.2" class="st3" width="8.2" height="1.9"/>
		<rect x="673.9" y="688.9" class="st87" width="5.7" height="1.9"/>
		<rect x="676.4" y="694.8" class="st88" width="14.1" height="1.9"/>
		<rect x="753.4" y="694.8" class="st88" width="10" height="1.9"/>
		<rect x="693.7" y="694.8" class="st3" width="55.4" height="1.9"/>
		<rect x="684.6" y="700.5" class="st3" width="47.1" height="1.9"/>
		<rect x="684.6" y="706.1" class="st3" width="56.9" height="1.9"/>
		<rect x="681.4" y="712" class="st88" width="6.6" height="1.9"/>
		<rect x="673.9" y="717.8" class="st88" width="10" height="1.9"/>
		<rect x="689.8" y="729.2" class="st3" width="25.4" height="1.9"/>
		<circle class="st87" cx="653.7" cy="608" r="2.1"/>
		<circle class="st68" cx="661.1" cy="608" r="2.1"/>
		<circle class="st70" cx="668.6" cy="608" r="2.1"/>
	</g>
	<g>
		<circle class="st94" cx="555" cy="585.8" r="30.2"/>
		<rect x="537.3" y="568.1" class="st87" width="5.9" height="5.9"/>
		<rect x="544.7" y="568.1" class="st98" width="5.9" height="5.9"/>
		<rect x="552.1" y="568.1" class="st87" width="5.9" height="5.9"/>
		<rect x="559.4" y="568.1" class="st7" width="5.9" height="5.9"/>
		<rect x="566.8" y="568.1" class="st88" width="5.9" height="5.9"/>
		<rect x="537.3" y="575.4" class="st7" width="5.9" height="5.9"/>
		<rect x="544.7" y="575.4" class="st88" width="5.9" height="5.9"/>
		<rect x="552.1" y="575.4" class="st7" width="5.9" height="5.9"/>
		<rect x="559.4" y="575.4" class="st99" width="5.9" height="5.9"/>
		<rect x="566.8" y="575.4" class="st100" width="5.9" height="5.9"/>
		<rect x="537.3" y="582.8" class="st96" width="5.9" height="5.9"/>
		<rect x="544.7" y="582.8" class="st87" width="5.9" height="5.9"/>
		<rect x="552.1" y="582.8" class="st100" width="5.9" height="5.9"/>
		<rect x="559.4" y="582.8" class="st7" width="5.9" height="5.9"/>
		<rect x="566.8" y="582.8" class="st99" width="5.9" height="5.9"/>
		<rect x="537.3" y="590.2" class="st99" width="5.9" height="5.9"/>
		<rect x="544.7" y="590.2" class="st101" width="5.9" height="5.9"/>
		<rect x="552.1" y="590.2" class="st98" width="5.9" height="5.9"/>
		<rect x="559.4" y="590.2" class="st9" width="5.9" height="5.9"/>
		<rect x="566.8" y="590.2" class="st96" width="5.9" height="5.9"/>
		<rect x="537.3" y="597.6" class="st100" width="5.9" height="5.9"/>
		<rect x="544.7" y="597.6" class="st7" width="5.9" height="5.9"/>
		<rect x="552.1" y="597.6" class="st99" width="5.9" height="5.9"/>
		<rect x="559.4" y="597.6" class="st7" width="5.9" height="5.9"/>
		<rect x="566.8" y="597.6" class="st87" width="5.9" height="5.9"/>
	</g>
	<path class="st7" d="M429.7,735c0,0.8,0.7,1.5,1.5,1.6h0.1l85.8-0.7h0.3c0.6,0,1.1,0.3,1.4,0.8c5.4,10.6,18.3,14.9,29,9.5
		c2.6-1.3,4.8-3.2,6.7-5.4c0.7-0.8,0.6-1.9-0.3-2.6c-0.3-0.3-0.8-0.4-1.2-0.4h-13.9c-0.5,0-1.1-0.3-1.3-0.8l-4.8-9.3
		c-0.3-0.4-0.3-1,0-1.4l4.8-9.3c0.3-0.5,0.8-0.8,1.3-0.8H553c0.7,0,1.4-0.4,1.7-1.1c0.3-0.7,0.3-1.5-0.3-2
		c-7.7-9.2-21.3-10.3-30.4-2.7c-2.2,1.8-4.1,4.1-5.4,6.7c-0.3,0.5-0.8,0.9-1.4,0.8h-0.3l-85.7-0.5c-0.8,0-1.6,0.6-1.6,1.5
		c0,0,0,0,0,0.1L429.7,735z"/>
	<path id="_Compound_Path__1_" class="st102" d="M138.3,552.8l-2.3,3.8c-2.8-0.9-5.6-1.4-8.5-1.5l-0.9-4.2c-0.5-2.5-2.9-4.2-5.3-3.8
		c-0.1,0-0.2,0.1-0.5,0.1l-5.2,1.3c-2.5,0.5-4.2,3.1-3.6,5.6c0,0.1,0.1,0.2,0.1,0.5l0.9,4.2c-2.7,1.4-5,3.2-7.2,5l-3.5-2.3
		c-2.2-1.5-5-0.9-6.5,1.4c0,0,0,0.1-0.1,0.1l-2.8,4.5c-1.4,2.3-0.8,5.2,1.4,6.7l3.5,2.3c-0.9,2.9-1.4,5.8-1.6,8.7l-4,1
		c-2.5,0.5-4.2,3.1-3.6,5.7c0,0.1,0,0.2,0.1,0.3l1.2,5.4c0.5,2.5,2.9,4.2,5.3,3.8c0.1,0,0.2-0.1,0.5-0.1l4-1c1.4,2.7,3.1,5,4.9,7.2
		l-2.3,3.4c-1.4,2.3-0.8,5.2,1.4,6.7l4.3,2.9c1.2,0.8,2.4,1,3.6,0.5c1.3-0.2,2.3-1.2,3-2.2l2.3-3.8c2.8,0.9,5.6,1.4,8.5,1.5l0.9,4.2
		c0.5,2.5,2.9,4.2,5.3,3.8c0.1,0,0.2-0.1,0.5-0.1l5.2-1.3c2.5-0.5,4.2-3.1,3.6-5.6c0-0.1-0.1-0.2-0.1-0.5l-0.9-4.2
		c2.5-1.4,4.9-3.2,7.1-5.2l3.5,2.3c1.2,0.8,2.4,1,3.6,0.5c1.3-0.2,2.3-1.2,3-2.2l2.8-4.5c0.8-1.2,1-2.5,0.5-3.9
		c-0.2-1.4-1-2.4-2.1-3.1l-3.5-2.3c0.9-2.9,1.4-5.8,1.6-8.7l4-1c2.5-0.5,4.2-3.1,3.6-5.6c0-0.1-0.1-0.2-0.1-0.5l-1.2-5.4
		c-0.5-2.5-2.9-4.2-5.3-3.8c-0.1,0-0.2,0.1-0.5,0.1l-4,1.7c-1.4-2.7-3.1-5-4.9-7.2l2.3-3.6c0.8-1.2,1-2.5,0.5-3.9
		c-0.2-1.4-1-2.4-2.1-3.1l-4-2.7C142.6,549.8,139.8,550.5,138.3,552.8C138.3,552.7,138.3,552.8,138.3,552.8z M144.5,581.8
		c0.6,2.8,0.6,5.6,0,8.3c-1.5,7.4-7.1,13.1-14.1,14.9c-10.1,2.4-20-4-22.1-14.2l0,0c-0.6-2.8-0.6-5.6,0-8.3
		c1.5-7.4,7.1-13.2,14.1-14.9C132.4,564.9,142.3,571.4,144.5,581.8C144.5,581.5,144.5,581.7,144.5,581.8z"/>
	<g>
		<g>
			<g>
				<g>
					<g>
						<defs>
							<rect id="SVGID_5_" x="-48" y="504.4" width="81.9" height="88.2"/>
						</defs>
						<clipPath id="SVGID_6_">
							<use xlink:href="#SVGID_5_"  style="overflow:visible;"/>
						</clipPath>
						<path class="st103" d="M4.3,535.2L3.2,569l-2,58.2c-2.1-0.2-4.3-0.5-6.3-0.9c-1.3-0.3-2.6-0.6-3.8-0.9l-2.1-56.5l-1.1-33.8
							L4.3,535.2L4.3,535.2z"/>
					</g>
				</g>
			</g>
		</g>
		<g>
			<g>
				<g>
					<g>
						<defs>
							<rect id="SVGID_7_" x="-48" y="504.4" width="81.9" height="88.2"/>
						</defs>
						<clipPath id="SVGID_8_">
							<use xlink:href="#SVGID_7_"  style="overflow:visible;"/>
						</clipPath>
						<path class="st104" d="M-5.2,626.2c-1.3-0.3-2.6-0.6-3.8-0.9l-2-56.4l-1.1-33.8h6.2l0.3,33.8L-5.2,626.2z"/>
					</g>
				</g>
			</g>
		</g>
		<g>
			<g>
				<g>
					<g>
						<defs>
							<rect id="SVGID_9_" x="-48" y="504.4" width="81.9" height="88.2"/>
						</defs>
						<clipPath id="SVGID_11_">
							<use xlink:href="#SVGID_9_"  style="overflow:visible;"/>
						</clipPath>
						<path class="st105" d="M4.3,535.2L3.2,569H-11l-1.1-33.8H4.3z"/>
					</g>
				</g>
			</g>
		</g>
		<g>
			<g>
				<g>
					<g>
						<defs>
							<rect id="SVGID_12_" x="-48" y="504.4" width="81.9" height="88.2"/>
						</defs>
						<clipPath id="SVGID_13_">
							<use xlink:href="#SVGID_12_"  style="overflow:visible;"/>
						</clipPath>
						<path class="st106" d="M-5.6,569H-11l-1.1-33.8h6.2L-5.6,569z"/>
					</g>
				</g>
			</g>
		</g>
		<g>
			<g>
				<g>
					<g>
						<defs>
							<rect id="SVGID_14_" x="-48" y="504.4" width="81.9" height="88.2"/>
						</defs>
						<clipPath id="SVGID_15_">
							<use xlink:href="#SVGID_14_"  style="overflow:visible;"/>
						</clipPath>
						<path class="st107" d="M33.8,524.3v96.9c-4.6,2.3-9.5,3.9-14.7,5c-2.1,0.4-4.3,0.7-6.4,0.9V524.3l6-11.4l3.5-6.7l1-1.9
							l1.4,2.6l3.2,6L33.8,524.3z"/>
					</g>
				</g>
			</g>
		</g>
		<g>
			<g>
				<g>
					<g>
						<defs>
							<rect id="SVGID_16_" x="-48" y="504.4" width="81.9" height="88.2"/>
						</defs>
						<clipPath id="SVGID_17_">
							<use xlink:href="#SVGID_16_"  style="overflow:visible;"/>
						</clipPath>
						<path class="st108" d="M23.5,504.6l-1,1.9L18.8,527l0.7,99.2c-2.1,0.4-4.4,0.7-6.6,1l-0.4-102.6L23.5,504.6z"/>
					</g>
				</g>
			</g>
		</g>
		<g>
			<g>
				<g>
					<g>
						<defs>
							<rect id="SVGID_18_" x="-48" y="504.4" width="81.9" height="88.2"/>
						</defs>
						<clipPath id="SVGID_19_">
							<use xlink:href="#SVGID_18_"  style="overflow:visible;"/>
						</clipPath>
						<path class="st109" d="M-22.1,504.4v115.7c-0.4-0.2-0.9-0.5-1.3-0.7c-1.9-1.1-3.8-2.3-5.7-3.6c-8-5.8-14.5-13.4-19-22.2v-89.2
							L-22.1,504.4L-22.1,504.4z"/>
					</g>
				</g>
			</g>
		</g>
		<g>
			<g>
				<g>
					<g>
						<defs>
							<rect id="SVGID_20_" x="-48" y="504.4" width="81.9" height="88.2"/>
						</defs>
						<clipPath id="SVGID_21_">
							<use xlink:href="#SVGID_20_"  style="overflow:visible;"/>
						</clipPath>
						<g class="st110">
							<path class="st101" d="M-32.9,511.1h10.7v3.6h-10.7V511.1z"/>
							<path class="st101" d="M-32.9,522.8h10.7v3.6h-10.7V522.8z"/>
							<path class="st101" d="M-32.9,534.4h10.7v3.6h-10.7V534.4z"/>
							<path class="st101" d="M-32.9,546h10.7v3.6h-10.7V546z"/>
							<path class="st101" d="M-32.9,557.7h10.7v3.6h-10.7V557.7z"/>
							<path class="st101" d="M-32.9,569.3h10.7v3.6h-10.7V569.3z"/>
							<path class="st101" d="M-32.9,580.9h10.7v3.7h-10.7V580.9z"/>
							<path class="st101" d="M-32.9,592.6h10.7v3.6h-10.7V592.6z"/>
							<path class="st101" d="M-32.9,604.2h10.7v3.6h-10.7V604.2z"/>
							<path class="st101" d="M-22.3,615.8v3.6h-1.1c-1.9-1.1-3.8-2.3-5.7-3.6H-22.3z"/>
						</g>
					</g>
				</g>
			</g>
		</g>
		<g>
			<g>
				<g>
					<g>
						<defs>
							<rect id="SVGID_22_" x="-48" y="504.4" width="81.9" height="88.2"/>
						</defs>
						<clipPath id="SVGID_23_">
							<use xlink:href="#SVGID_22_"  style="overflow:visible;"/>
						</clipPath>
						<path class="st111" d="M6.7,527.5c0,0.3,0,0.6,0,0.9c-0.4,13.5-20.8,13.5-21.1,0c0-0.3,0-0.6,0-0.9c0-4.2,0.9-8.2,2.4-11.8
							c1.8-4.3,4.7-8.2,8.2-11.2C2.7,510,6.7,518.2,6.7,527.5z"/>
					</g>
				</g>
			</g>
		</g>
		<g>
			<g>
				<g>
					<g>
						<defs>
							<rect id="SVGID_24_" x="-48" y="504.4" width="81.9" height="88.2"/>
						</defs>
						<clipPath id="SVGID_25_">
							<use xlink:href="#SVGID_24_"  style="overflow:visible;"/>
						</clipPath>
						<path class="st112" d="M-3.8,538.5c-5.2,0-10.4-3.4-10.6-10.2c0-0.3,0-0.6,0-0.9c0-4.2,0.9-8.2,2.4-11.8
							c1.8-4.3,4.7-8.2,8.2-11.2c-1,3.1-1.8,6.9-2.3,11.2c-0.4,3.6-0.7,7.6-0.7,11.8c0,0.3,0,0.6,0,0.9
							C-6.8,535.1-5.3,538.5-3.8,538.5z"/>
					</g>
				</g>
			</g>
		</g>
		<g>
			<g>
				<g>
					<g>
						<defs>
							<rect id="SVGID_26_" x="-48" y="504.4" width="81.9" height="88.2"/>
						</defs>
						<clipPath id="SVGID_27_">
							<use xlink:href="#SVGID_26_"  style="overflow:visible;"/>
						</clipPath>
						<path class="st113" d="M6.7,527.5c-8.2,3.7-9.6-8.4-13.4-4.7c-0.1,0.1-0.1,0.1-0.1,0.1c-3.7,3.6-7.3-0.2-5.3-7.3
							c1.8-4.3,4.7-8.2,8.2-11.2C2.7,510,6.7,518.2,6.7,527.5z"/>
					</g>
				</g>
			</g>
		</g>
		<g>
			<g>
				<g>
					<g>
						<defs>
							<rect id="SVGID_28_" x="-48" y="504.4" width="81.9" height="88.2"/>
						</defs>
						<clipPath id="SVGID_29_">
							<use xlink:href="#SVGID_28_"  style="overflow:visible;"/>
						</clipPath>
						<path class="st114" d="M-3.8,504.4c-1,3.1-1.8,6.9-2.3,11.2c-0.3,2.3-0.5,4.8-0.6,7.3c-3.7,3.6-7.3-0.2-5.3-7.3
							C-10.2,511.3-7.3,507.5-3.8,504.4z"/>
					</g>
				</g>
			</g>
		</g>
		<g>
			<g>
				<g>
					<g>
						<defs>
							<rect id="SVGID_30_" x="-48" y="504.4" width="81.9" height="88.2"/>
						</defs>
						<clipPath id="SVGID_31_">
							<use xlink:href="#SVGID_30_"  style="overflow:visible;"/>
						</clipPath>
						<path class="st115" d="M34,524.4c-3.1,1.6-6.8,2.6-10.5,2.6c-1.4,0-2.8-0.1-4.1-0.4c-2.3-0.4-4.5-1.2-6.5-2.3l10.5-20l0,0
							L34,524.4z"/>
					</g>
				</g>
			</g>
		</g>
		<g>
			<g>
				<g>
					<g>
						<defs>
							<rect id="SVGID_32_" x="-48" y="504.4" width="81.9" height="88.2"/>
						</defs>
						<clipPath id="SVGID_33_">
							<use xlink:href="#SVGID_32_"  style="overflow:visible;"/>
						</clipPath>
						<path class="st116" d="M23.5,504.4l-4.1,22.3c-2.3-0.4-4.9-1-6.9-2.1L23.5,504.4L23.5,504.4z"/>
					</g>
				</g>
			</g>
		</g>
		<g>
			<g>
				<g>
					<g>
						<defs>
							<rect id="SVGID_34_" x="-48" y="504.4" width="81.9" height="88.2"/>
						</defs>
						<clipPath id="SVGID_35_">
							<use xlink:href="#SVGID_34_"  style="overflow:visible;"/>
						</clipPath>
						<path class="st117" d="M28,513c-1.4,0.7-2.9,1.1-4.5,1.1c-0.6,0-1.2-0.1-1.8-0.1c-1-0.2-1.9-0.5-2.8-1l4.5-8.6L28,513z"/>
					</g>
				</g>
			</g>
		</g>
		<g>
			<g>
				<g>
					<g>
						<defs>
							<rect id="SVGID_36_" x="-48" y="504.4" width="81.9" height="88.2"/>
						</defs>
						<clipPath id="SVGID_37_">
							<use xlink:href="#SVGID_36_"  style="overflow:visible;"/>
						</clipPath>
						<path class="st118" d="M23.5,504.4l-1.8,9.6c-1-0.2-1.9-0.5-2.8-1L23.5,504.4z"/>
					</g>
				</g>
			</g>
		</g>
	</g>
	<g>
		<polygon class="st119" points="406.9,747.8 322.7,747.8 326.8,722.3 402.8,722.3 		"/>
		<polygon class="st120" points="388.3,722.3 326.8,722.3 322.7,747.8 361.8,747.8 		"/>
		<path class="st96" d="M419.3,756H310.4v-1.2c0-3.9,3.1-7,7-7h94.9c3.9,0,7,3.1,7,7V756z"/>
		<path class="st99" d="M503.3,724.7H226.4c-4.3,0-7.8-3.5-7.8-7.8V518.7c0-4.3,3.5-7.8,7.8-7.8h276.8c4.3,0,7.8,3.5,7.8,7.8v198.1
			C511.1,721.2,507.6,724.7,503.3,724.7z"/>
		<rect x="230.7" y="522.6" class="st3" width="268.2" height="161.7"/>
		<path class="st96" d="M503.3,724.7H226.4c-4.3,0-7.8-3.5-7.8-7.8v-20.8h292.5v20.8C511.1,721.2,507.6,724.7,503.3,724.7z"/>
	</g>
	<g>
		
			<ellipse transform="matrix(9.802502e-03 -1 1 9.802502e-03 -638.2625 590.0499)" class="st121" cx="-21.2" cy="617.3" rx="8.8" ry="8.8"/>
		<line class="st122" x1="-21.2" y1="612.9" x2="-21.2" y2="621.7"/>
		<line class="st122" x1="-16.8" y1="617.3" x2="-25.6" y2="617.3"/>
		<rect x="-52.5" y="592.6" class="st7" width="186.9" height="95.5"/>
		<rect x="-48" y="596.3" class="st4" width="56" height="42"/>
		<rect x="13" y="596.3" class="st73" width="56" height="42"/>
		<rect x="74" y="596.3" class="st73" width="56" height="42"/>
		<rect x="-48" y="642.4" class="st73" width="56" height="42"/>
		<rect x="13" y="642.4" class="st73" width="56" height="42"/>
		<rect x="74" y="642.4" class="st73" width="56" height="42"/>
		
			<ellipse transform="matrix(9.802502e-03 -1 1 9.802502e-03 -633.2628 585.0989)" class="st73" cx="-21.2" cy="612.3" rx="8.8" ry="8.8"/>
		<line class="st123" x1="-21.2" y1="607.9" x2="-21.2" y2="616.7"/>
		<line class="st123" x1="-16.8" y1="612.3" x2="-25.6" y2="612.3"/>
		<rect x="-42.2" y="626.3" class="st73" width="42" height="5.8"/>
	</g>
	<g>
		<rect x="666.2" y="529.5" class="st62" width="100.7" height="66"/>
		<path class="st7" d="M736.5,580.9h-55.9c-2.4,0-4.4-2-4.4-4.4V547c0-2.4,2-4.4,4.4-4.4h55.9c2.4,0,4.4,2,4.4,4.4v29.5
			C741,578.9,739,580.9,736.5,580.9z"/>
		<rect x="676.3" y="547.1" class="st99" width="64.7" height="9.2"/>
		<rect x="680" y="559.5" class="st94" width="57.3" height="4.5"/>
		<path class="st79" d="M756.1,544.1c-10.1,1.3-17.2-4.9-17.2-4.9s-7.1,6.2-17.2,4.9c-3.1,23.3,5.8,39.2,17.2,41.7
			C750.3,583.3,759.2,567.4,756.1,544.1z"/>
		<path class="st124" d="M738.9,581.4c-7.9-2.5-14.8-14.4-13.4-32.9c5.9-0.2,10.6-2.4,13.4-4.1c2.8,1.7,7.5,3.9,13.4,4.1
			C753.7,567,746.8,578.9,738.9,581.4z"/>
		<path class="st78" d="M738.9,544.4L738.9,544.4c-2.8,1.7-7.5,3.9-13.4,4.1c-1.4,18.5,5.5,30.4,13.4,32.9l0,0V544.4z"/>
		<polygon class="st125" points="690.3,556.4 701.6,556.4 704.6,547.1 693.2,547.1 		"/>
		<polygon class="st125" points="686.5,556.4 689.4,547.1 685.1,547.1 682.1,556.4 		"/>
	</g>
	<g>
		<rect x="122.2" y="661.7" class="st62" width="130.2" height="87.7"/>
		<g>
			
				<rect x="197.1" y="676.1" transform="matrix(0.1835 -0.983 0.983 0.1835 -505.3333 764.0803)" class="st88" width="20.3" height="20.3"/>
			<path class="st87" d="M196.4,701.1l-16.7,5.1c-1.9,0.6-4.1-0.5-4.7-2.5l-5.1-16.7c-0.6-1.9,0.5-4.1,2.5-4.7l16.7-5.1
				c1.9-0.6,4.1,0.5,4.7,2.5l5.1,16.7C199.5,698.4,198.3,700.5,196.4,701.1z"/>
			<path class="st7" d="M202.8,736.9c-3.3,0-5.9-2.7-5.9-5.9c0-1.5,0.6-2.9,1.5-4l0.7-0.9H183l0.7,0.9c1,1.1,1.5,2.5,1.5,4
				c0,3.3-2.8,5.9-5.9,5.9c-3.3,0-5.9-2.7-5.9-5.9c0-1.5,0.6-2.9,1.5-4l0.7-0.9H173c-0.4,0-0.9-0.2-1.2-0.6s-0.4-0.9-0.2-1.2
				l3.3-8.9c0.2-0.5,0.6-0.7,0.9-0.9l0.4-0.2l-11.5-32.7l-9.3-3.6c-0.9-0.4-1.2-1.3-0.9-2.2c0.3-0.7,0.9-1.1,1.5-1.1
				c0.2,0,0.4,0.1,0.7,0.2l10,3.9c0.5,0.2,0.9,0.6,1,1.1l2.1,6.1h49c0.6,0,1.1,0.2,1.4,0.7c0.4,0.4,0.4,1,0.2,1.5v0.1l-9.1,27.8
				c-0.2,0.7-0.9,1.2-1.5,1.2h-31.5c-0.2,0-0.4-0.2-0.7-0.2l-0.4-0.2l-2.4,6.6h34.8c0.8,0,1.3,0.6,1.3,1.3s-0.6,1.3-1.3,1.3h-3.1
				l0.7,0.9c1,1.1,1.5,2.5,1.5,4C208.8,734.4,206.1,736.9,202.8,736.9z M203,727.7c-1.8,0-3.3,1.5-3.3,3.3s1.5,3.3,3.3,3.3
				s3.3-1.5,3.3-3.3C206.4,729.2,204.9,727.7,203,727.7z M179.3,727.7c-1.8,0-3.3,1.5-3.3,3.3s1.5,3.3,3.3,3.3s3.3-1.5,3.3-3.3
				C182.7,729.2,181.2,727.7,179.3,727.7z M199.4,713.9v-5.6h-10.9v5.6H199.4z M185.3,713.9v-5.6h-7.7l1.9,5.6H185.3z M208.6,713.9
				l1.7-5.6h-7.5v5.6H208.6z M211.4,704.9l2-6.5h-10.6v6.5H211.4z M199.4,704.9v-6.5h-10.9v6.5H199.4z M185.3,704.9v-6.5h-11.1
				l2.2,6.5H185.3z M185.3,695v-5.8H171l2,5.9L185.3,695L185.3,695z M214.6,695l1.8-5.9h-13.6v5.9H214.6z M199.4,695v-5.8h-10.9v5.9
				L199.4,695L199.4,695z"/>
		</g>
	</g>
	<g>
		<rect x="55.8" y="517.7" class="st62" width="224.4" height="20.1"/>
		<rect x="73.4" y="517.7" class="st95" width="26" height="20.1"/>
		<g>
			<rect x="159.5" y="525.4" class="st73" width="49.5" height="4.9"/>
			<rect x="219" y="525.4" class="st73" width="50.5" height="4.9"/>
			<rect x="110" y="525.4" class="st73" width="39.6" height="4.9"/>
		</g>
	</g>
	<g>
		<circle class="st73" cx="607.6" cy="542.6" r="9.2"/>
		<line class="st123" x1="607.6" y1="538" x2="607.6" y2="547.2"/>
		<line class="st123" x1="612.2" y1="542.6" x2="603" y2="542.6"/>
	</g>
	<g>
		<rect x="430.3" y="643.3" class="st7" width="45.3" height="45.3"/>
		<rect x="479" y="643.3" class="st7" width="45.3" height="45.3"/>
		<rect x="527.8" y="643.3" class="st7" width="45.3" height="45.3"/>
		<rect x="576.5" y="643.3" class="st7" width="45.3" height="45.3"/>
		<rect x="625.3" y="643.3" class="st73" width="7.5" height="45.3"/>
		<polyline class="st123" points="627.6,660.3 630.4,665.9 627.6,671.5 		"/>
		<rect x="419.2" y="643.2" class="st73" width="7.5" height="45.3"/>
		<polyline class="st123" points="424.4,671.5 421.6,665.9 424.4,660.3 		"/>
	</g>
	<g>
		<rect x="581.5" y="619" class="st88" width="75.3" height="8.3"/>
		<rect x="581.5" y="619" class="st87" width="75.3" height="3.7"/>
		<polygon class="st94" points="581.5,627.3 581.5,627.3 581.5,619 581.5,619 576.7,623.1 		"/>
		<rect x="654.4" y="619" class="st99" width="2.4" height="8.3"/>
		<rect x="654.4" y="619" class="st125" width="2.4" height="4.1"/>
		<polygon class="st88" points="579.1,621.1 576.7,623.1 579.1,625.2 		"/>
	</g>
	<g id="Layer_2_2_">
		<g id="Layer_1-2_1_">
			<polygon class="st95" points="281.5,573.1 255.3,588.3 255.3,618.6 262.8,622.9 262.7,592.6 281.5,581.8 300.2,592.6 
				300.2,622.9 307.7,618.6 307.7,588.3 			"/>
			<polygon class="st95" points="285.3,622.9 281.5,625.1 277.8,622.9 277.8,592.6 270.3,597 270.3,627.3 281.5,633.7 292.8,627.3 
				292.8,597 285.3,592.6 			"/>
			<path class="st126" d="M324.9,588.5l10.3,26h0.1l10.1-26h3.9v29.9h-2.7v-26h-0.1c-0.1,0.5-0.3,1-0.4,1.4l-0.5,1.3l-0.5,1.4
				l-8.6,21.9H334l-8.8-21.9c-0.2-0.4-0.3-0.8-0.5-1.2s-0.3-0.9-0.4-1.3l-0.5-1.5h-0.1v25.9h-2.6v-29.9L324.9,588.5L324.9,588.5z"/>
			<path class="st126" d="M357.2,618.5c-0.8-0.2-1.6-0.6-2.2-1.1s-1.1-1.1-1.5-1.9s-0.6-1.7-0.5-2.6c0-1.1,0.2-2.2,0.7-3.1
				c0.5-0.8,1.1-1.5,1.9-1.9c0.9-0.5,1.8-0.9,2.8-1.1c1.2-0.3,2.3-0.5,3.5-0.6c1.1-0.1,2-0.2,2.7-0.4c0.6-0.1,1.2-0.3,1.8-0.5
				c0.4-0.1,0.8-0.4,1-0.8s0.3-0.8,0.3-1.3v-0.4c0.1-1.2-0.4-2.5-1.4-3.3c-1.1-0.8-2.5-1.1-3.8-1.1c-3.8,0-5.9,1.6-6.1,4.8h-2.6
				c0.1-1.9,0.9-3.7,2.3-5c1.8-1.4,4-2,6.3-1.9c2-0.1,3.9,0.4,5.6,1.6c1.5,1.3,2.2,3.2,2,5.1v11.7c0,0.5,0.1,1,0.4,1.4
				c0.3,0.3,0.7,0.5,1.1,0.5c0.1,0,0.3,0,0.4,0c0.2,0,0.4-0.1,0.5-0.1h0.1v1.9c-0.2,0.1-0.5,0.2-0.7,0.2c-0.3,0.1-0.7,0.1-1,0.1
				c-0.8,0-1.6-0.2-2.3-0.7c-0.6-0.6-1-1.5-0.9-2.3v-0.4h-0.1c-0.3,0.4-0.7,0.9-1.1,1.3c-0.5,0.5-1,0.9-1.6,1.2
				c-0.7,0.4-1.4,0.6-2.2,0.8c-0.9,0.2-1.8,0.3-2.7,0.3C359.1,618.8,358.1,618.7,357.2,618.5 M363.6,616.2c0.8-0.3,1.6-0.8,2.3-1.4
				c0.6-0.5,1.1-1.2,1.4-2c0.3-0.7,0.4-1.5,0.4-2.2v-4c-0.8,0.4-1.6,0.7-2.5,0.9c-1,0.2-2,0.4-3.1,0.5s-1.8,0.3-2.6,0.4
				c-0.7,0.1-1.4,0.4-2,0.7c-0.5,0.3-1,0.8-1.4,1.4c-0.4,0.7-0.5,1.5-0.5,2.2s0.1,1.3,0.4,1.9c0.3,0.5,0.6,0.9,1,1.2
				c0.5,0.3,1,0.5,1.5,0.7c0.6,0.1,1.2,0.2,1.8,0.2C361.5,616.8,362.6,616.6,363.6,616.2"/>
			<path class="st126" d="M377,624.3c-1.4-0.9-2.2-2.4-2.5-4h2.5c0.2,1.2,1,2.2,2,2.7c1.2,0.6,2.6,0.8,4,0.8
				c1.9,0.2,3.7-0.4,5.2-1.6c1.1-1.2,1.7-2.9,1.6-4.5v-3.4h-0.1c-0.7,1.1-1.7,2.1-2.8,2.8c-1.2,0.7-2.6,1-4.1,1
				c-1.3,0-2.6-0.3-3.8-0.8c-1.1-0.5-2.1-1.3-2.9-2.2c-0.8-1-1.5-2.2-1.9-3.4c-0.4-1.4-0.7-2.9-0.7-4.4c0-1.6,0.2-3.1,0.7-4.6
				c0.4-1.2,1.1-2.4,2-3.4c0.8-0.9,1.8-1.6,2.9-2.1s2.3-0.7,3.6-0.7c1.5-0.1,2.9,0.3,4.1,1c1.1,0.7,2,1.6,2.7,2.7h0.1v-3.3h2.6v20.7
				c0.1,2.1-0.6,4.2-2,5.8c-1.9,1.8-4.6,2.8-7.2,2.6C381,625.9,378.8,625.4,377,624.3 M388.4,613.4c1.2-1.9,1.8-4.1,1.7-6.3
				c0-1.2-0.1-2.4-0.4-3.5c-0.3-1-0.7-1.9-1.3-2.7c-0.6-0.8-1.3-1.4-2.2-1.8c-1-0.4-2-0.7-3.1-0.6c-2-0.1-3.8,0.8-5,2.4
				c-1.3,1.9-1.9,4.1-1.8,6.3c0,1.1,0.1,2.3,0.4,3.4c0.3,1,0.7,1.9,1.2,2.7s1.3,1.4,2.1,1.8c0.9,0.4,1.9,0.7,3,0.7
				C385.1,615.9,387.1,615,388.4,613.4"/>
			<path class="st126" d="M401.4,618c-1.2-0.5-2.3-1.4-3.1-2.4c-0.9-1.1-1.5-2.3-1.9-3.6c-0.5-1.5-0.7-3-0.7-4.5s0.2-3,0.7-4.5
				c0.4-1.3,1.1-2.5,2-3.6c0.8-1,1.9-1.8,3.1-2.4c1.3-0.6,2.7-0.9,4.1-0.8c1.5,0,3,0.3,4.4,1c1.2,0.6,2.2,1.5,2.9,2.6
				c0.8,1.1,1.3,2.4,1.6,3.8c0.3,1.4,0.5,2.9,0.5,4.4h-16.5c0,1.1,0.2,2.3,0.5,3.4c0.3,1,0.8,1.9,1.4,2.7s1.4,1.4,2.3,1.8
				c1,0.5,2.1,0.7,3.2,0.7c1.5,0.1,3-0.4,4.2-1.3c1-1,1.8-2.2,2.1-3.5h2.5c-0.4,2-1.4,3.8-2.9,5.1c-1.7,1.4-3.8,2-5.9,1.9
				C404.2,618.9,402.7,618.6,401.4,618 M411.6,603c-0.3-0.9-0.7-1.7-1.2-2.5c-0.5-0.7-1.2-1.2-2-1.6c-0.9-0.4-1.9-0.6-2.9-0.6
				s-2,0.2-2.9,0.6c-0.8,0.4-1.5,0.9-2.2,1.6c-0.6,0.7-1.1,1.6-1.4,2.5c-0.4,1-0.6,2-0.7,3H412C412,605,411.8,604,411.6,603"/>
			<path class="st126" d="M420.6,596.7v3.3h0.1c0.7-1.1,1.7-2,2.9-2.7c1.3-0.7,2.9-1.1,4.4-1.1c1.8-0.1,3.5,0.5,4.9,1.8s2,3.1,1.9,5
				v15.3h-2.6v-15.1c0.1-1.4-0.4-2.7-1.3-3.6c-1-0.8-2.3-1.2-3.6-1.1c-0.9,0-1.8,0.1-2.6,0.4c-0.8,0.3-1.5,0.7-2.1,1.2
				c-1.2,1.1-2,2.7-2,4.4v13.8H418v-21.6L420.6,596.7L420.6,596.7L420.6,596.7z"/>
			<path class="st126" d="M441.5,617.6c-0.8-0.8-1.2-1.9-1.1-3v-15.8h-3.3v-2.1h3.3V590h2.6v6.7h4v2.1h-4v15.3
				c-0.1,0.6,0.1,1.2,0.5,1.6c0.4,0.3,1,0.5,1.6,0.4c0.3,0,0.6,0,0.9-0.1c0.3,0,0.5-0.1,0.8-0.2h0.1v2.2c-0.8,0.3-1.6,0.4-2.4,0.4
				C443.4,618.5,442.3,618.2,441.5,617.6"/>
			<path class="st126" d="M454.6,618c-1.2-0.5-2.3-1.4-3.1-2.4c-0.9-1.1-1.6-2.3-2-3.6c-1-2.9-1-6.1,0-9c0.4-1.3,1.1-2.5,2-3.6
				c0.9-1,1.9-1.8,3.1-2.4c2.7-1.1,5.7-1.1,8.4,0c1.2,0.5,2.3,1.4,3.1,2.4c0.9,1.1,1.6,2.3,2,3.6c0.9,2.9,0.9,6,0,9
				c-0.4,1.3-1.1,2.5-2,3.6c-0.8,1-1.9,1.8-3.1,2.4C460.3,619.2,457.3,619.2,454.6,618 M461.9,616c0.9-0.5,1.7-1.1,2.3-2
				c0.7-0.9,1.1-1.9,1.4-2.9c0.6-2.3,0.6-4.8,0-7.1c-0.3-1.1-0.7-2-1.4-2.9c-0.6-0.8-1.4-1.5-2.3-2c-2-1-4.4-1-6.4,0
				c-0.9,0.5-1.7,1.1-2.3,2c-0.7,0.9-1.1,1.9-1.4,2.9c-0.6,2.3-0.6,4.8,0,7.1c0.3,1.1,0.8,2,1.4,2.9c0.6,0.8,1.4,1.5,2.3,2
				C457.6,616.9,460,616.9,461.9,616"/>
			<path class="st126" d="M472,600.3c-1.4,0.1-2.7-1.1-2.7-2.5c0-0.1,0-0.2,0-0.3c-0.1-1.5,1-2.7,2.5-2.8c0.1,0,0.1,0,0.2,0
				c1.4-0.1,2.7,1.1,2.7,2.5c0,0.1,0,0.2,0,0.3c0.1,1.5-1,2.7-2.5,2.8C472.2,600.3,472.1,600.3,472,600.3 M472,595.1
				c-1.2,0-2.3,1-2.3,2.2c0,0.1,0,0.1,0,0.2c0,1.3,1.1,2.3,2.3,2.3s2.3-1.1,2.3-2.3c0.1-1.2-0.8-2.3-2.1-2.5
				C472.2,595.1,472.1,595.1,472,595.1 M472.8,599.1l-0.9-1.3h-0.3v1.2h-0.5v-3h0.9c0.6,0,1.1,0.3,1.1,0.9c0,0.4-0.3,0.7-0.6,0.8
				l0.9,1.2L472.8,599.1z M472,596.4h-0.4v0.9h0.4c0.3,0,0.5-0.1,0.5-0.4C472.6,596.6,472.4,596.4,472,596.4"/>
		</g>
	</g>
	<g>
		<circle class="st98" cx="122.2" cy="688.1" r="8.2"/>
		<polyline class="st97" points="126.8,685.1 120.7,691.2 117.6,688.1 		"/>
	</g>
</g>
<g>
	<path class="st127" d="M116.2,173.4c2.1-0.5,3.7-0.4,4.5,0.3c0.9,0.6,1.3,2,1.4,4c0,2.1-0.4,3.7-1.4,4.8c-0.9,1.1-2.5,1.9-4.8,2.4
		l-3.4,0.7l-0.2-11.3L116.2,173.4L116.2,173.4z M107,198.2l5.7-1.2l-0.1-7.2l4.8-1c2.1-0.4,3.8-1,5.1-1.8c1.3-0.7,2.4-1.8,3.3-3
		c0.8-1.1,1.3-2.2,1.7-3.4c0.4-1.2,0.5-2.4,0.5-3.7c0-3.2-1-5.5-2.9-6.9c-1.9-1.4-4.4-1.8-7.7-1.1l-10.9,2.3L107,198.2L107,198.2z"
		/>
	<path class="st127" d="M128.7,159.3l5.6-1.2l0.1,7.2l5-1.1c3.1-0.7,5.4-0.6,6.8,0.3c1.4,0.8,2.2,2.5,2.2,5.1l0.2,12.6l-5.7,1.2
		l-0.2-11.9c0-1.4-0.3-2.2-0.8-2.6c-0.5-0.4-1.5-0.4-3-0.1l-4.5,0.9l0.2,15.5l-5.6,1.2L128.7,159.3L128.7,159.3z"/>
	<path class="st127" d="M160.3,164.1c2.1-0.5,3.7-0.4,4.5,0.3c0.9,0.6,1.3,2,1.4,4c0,2.1-0.4,3.7-1.4,4.8c-0.9,1.1-2.5,1.9-4.8,2.4
		l-3.4,0.7l-0.2-11.3L160.3,164.1L160.3,164.1z M151.1,188.9l5.7-1.2l-0.1-7.2l4.8-1c2.1-0.4,3.8-1,5.1-1.8c1.3-0.7,2.4-1.8,3.3-3
		c0.8-1.1,1.3-2.2,1.7-3.4c0.4-1.2,0.5-2.4,0.5-3.7c0-3.2-1-5.5-2.9-6.9c-1.9-1.4-4.4-1.8-7.7-1.1l-10.9,2.3L151.1,188.9
		L151.1,188.9z"/>
</g>
</svg>
